<?xml version="1.0" encoding="utf-8"?>
<!-- Generator: Adobe Illustrator 26.1.0, SVG Export Plug-In . SVG Version: 6.00 Build 0)  -->
<svg version="1.1" id="图层_1" xmlns="http://www.w3.org/2000/svg" xmlns:xlink="http://www.w3.org/1999/xlink" x="0px" y="0px"
	 viewBox="0 0 138.9 138.9" style="enable-background:new 0 0 138.9 138.9;" xml:space="preserve">
<style type="text/css">
	.st0{fill-rule:evenodd;clip-rule:evenodd;fill:#194E9C;}
	.st1{fill:none;stroke:#194A9B;stroke-width:2.044;stroke-miterlimit:22.926;}
	.st2{fill:#FFFFFF;}
	.st3{fill:#194E9C;}
	.st4{fill:none;stroke:#194E9C;stroke-width:1.107;stroke-miterlimit:22.926;}
	.st5{fill:none;stroke:#194E9C;stroke-width:1.112;stroke-miterlimit:22.926;}
	.st6{fill:none;stroke:#194E9C;stroke-width:1.108;stroke-miterlimit:22.926;}
	.st7{fill:none;stroke:#194E9C;stroke-width:1.111;stroke-miterlimit:22.926;}
	.st8{fill-rule:evenodd;clip-rule:evenodd;fill:#4D4144;}
	.st9{fill-rule:evenodd;clip-rule:evenodd;fill:#FE0709;}
</style>
<path class="st0" d="M32.6,81.2h74c-1.5,2.9-3.3,5.6-5.5,8H38.1C35.8,86.9,33.9,84.2,32.6,81.2"/>
<path class="st1" d="M69.4,17.7c37.8,0,68.4,23.2,68.4,51.7s-30.6,51.7-68.4,51.7S1,98,1,69.4S31.7,17.7,69.4,17.7z"/>
<polyline class="st0" points="44.8,73.3 47.9,62.7 52.1,62.7 50.3,69.2 51.7,69.2 53.6,62.7 57.8,62.7 54.8,73.3 50.5,73.3 
	51.3,70.5 49.9,70.5 49.1,73.3 44.8,73.3 "/>
<polyline class="st0" points="59.3,62.8 56.1,73.4 66.1,73.4 69.1,62.8 65,62.8 62.2,72.1 60.7,72.1 63.4,62.8 59.3,62.8 "/>
<path class="st0" d="M39.7,76.6l34.7,0.1c2.4-1.7,4.8-5.3,4.2-7.8c-0.8-1.6-2.4-2.6-5.3-4.9c-1-1.1-2-2.2-3.1-3.2
	c-3-1.9-5.9-3.9-8.8-6c-1.7-1.3-1-3.1,2.5-2.7c8.8,0.6,17.5,2.7,25.6,6.2c1.6,0.9,1.1,1.2-0.2,1.4l-7.9-0.1
	c-1.9,0.1-3.1,1.1-4.3,3.2h4.5l-4.1,13.9h5.1l4-13.8h3c1.8-1.7,3.5-3.6,5-5.6c1.3-2.2,1.2-4.7-1.2-6c-5.4-2.5-11.3-3-15.8-3.2
	c-7.3,0.2-12.8,0.8-15.5,2.3l-1.4,1.2c-4.5,0-6.8,1.8-4.9,4.2c1.2,1.6,6.2,3.4,12.2,5.8c4.6,1.5,5.8,5.1,3.2,8.6
	c-1.8,2.6-5.3,4-10.3,4.4c-5.4,0.4-10.9,0.3-16.2-0.3C42.8,75,41.2,75.7,39.7,76.6"/>
<path class="st2" d="M42.3,85.7L42.3,85.7c0.1,0,0.1,0.1,0.1,0.4c0,0.1,0,0.1-0.1,0.1c-0.2,0-0.3,0-0.5-0.1c0,0,0,0,0,0
	c0,0,0,0,0.1-0.1C42,85.9,42.2,85.8,42.3,85.7C42.3,85.7,42.3,85.7,42.3,85.7L42.3,85.7 M42.4,84.9c0,0.2-0.1,0.3-0.3,0.3
	c0,0,0,0-0.1,0l-0.2,0.1c-0.1,0-0.1,0.1-0.2,0.1c0,0,0-0.1,0-0.1c0-0.1,0-0.1,0-0.2s0.1-0.1,0.2-0.2c0.1,0,0.2-0.1,0.3-0.1
	c0.1,0,0.1,0,0.1-0.1c0-0.1,0-0.2-0.1-0.3c-0.1-0.1-0.2-0.2-0.3-0.2c-0.1-0.1-0.1-0.2-0.1-0.3c0-0.1,0-0.1,0.1-0.2
	c0.1-0.1,0.1-0.1,0.2-0.1c0.1,0,0.1,0,0.2,0.1c0.1,0.1,0.1,0.2,0.1,0.3c0,0,0,0.1,0,0.1C42.4,84.4,42.4,84.7,42.4,84.9L42.4,84.9z
	 M45.9,84.4c0-0.4,0.1-0.8,0.3-1.2c0,0,0,0,0,0c0,0,0-0.1,0-0.1c-0.3-0.1-0.6-0.1-1-0.1c-0.2,0-0.4,0.1-0.6,0.1
	c-0.2,0-0.4,0.1-0.7,0.1c0,0-0.1,0-0.1,0c-0.1,0-0.1,0.1-0.1,0.1c0,0.4,0,0.8,0,1.3c0,0.2-0.1,0.4-0.1,0.7c0,0,0,0.1,0,0.1
	c0,0.3-0.1,0.6-0.3,0.8c-0.1,0.1-0.1,0.2-0.2,0.3l0,0h0v0l0,0c0,0,0,0,0,0c-0.1-0.4-0.1-0.6,0-0.7c0-0.2,0-0.5,0-0.8
	c0-0.5,0-0.8,0-0.9c0-0.1,0.1-0.3,0.1-0.4c0.1-0.2,0.2-0.3,0.1-0.3c-0.2-0.1-0.5-0.2-0.7-0.1c-0.5,0.1-0.9,0.2-1.3,0.3
	c-0.2,0.1-0.3,0.1-0.3,0.2c0,0.7,0,1.4,0.1,2.1c0,0.1-0.1,0.2-0.3,0.3c-0.1,0.1-0.2,0.1-0.2,0.1c-0.2,0.1-0.3,0.1-0.3,0.1
	s0.1,0.1,0.2,0.2c0.1,0.1,0.2,0.2,0.4,0.2l0.4-0.3c0.1-0.1,0.2-0.1,0.3-0.2c0.1-0.1,0.2-0.1,0.2-0.1c0.1,0,0.1,0.1,0.2,0.2
	c0.3,0.2,0.6,0.4,0.9,0.5c0.1,0,0.1,0.1,0.1,0.1s-0.1,0.2-0.4,0.4c0,0-0.1,0.1-0.1,0.1c0,0,0,0-0.1,0.1c0,0-0.1,0.1-0.1,0.1
	c0,0,0,0,0.1,0.1c0.3-0.1,0.6-0.2,0.9-0.3c0.1,0,0.1-0.1,0.1-0.2c0.1-0.3,0.3-0.7,0.5-1c0-0.1,0.1-0.1,0.1-0.2c0,0,0,0,0,0
	c0.2-0.1,0.4-0.3,0.6-0.4c0,0,0,0,0,0l0.1,0c0.1,0,0.2,0,0.3-0.1c0,0,0.1-0.1,0-0.3c0-0.1,0-0.1,0-0.2c0,0-0.1,0-0.1,0
	c-0.3,0-0.5,0-0.5,0.1c0,0-0.1,0-0.1-0.1c0,0,0,0,0,0c0-0.1,0.1-0.3,0.2-0.3c0.3-0.1,0.4-0.3,0.5-0.4c0,0,0,0,0-0.1
	c0-0.1-0.1-0.2-0.2-0.2c-0.1,0-0.2,0-0.3,0.1c0,0,0,0-0.1-0.1l0-0.2c0-0.1,0.1-0.2,0.2-0.3c0.1,0,0.2-0.1,0.3-0.1
	c0.1,0,0.1,0,0.2,0.1c0.1,0,0.1,0.2,0.1,0.5v0c0,1.2,0,1.9,0.1,2.1c0,0.3,0,0.6,0,0.8c0,0.1,0,0.1,0,0.2c-0.2,0.1-0.5,0.1-0.7,0
	c-0.3,0-0.4,0-0.4,0c0,0,0,0.1,0.1,0.1c0.3,0.2,0.6,0.3,0.9,0.4c0.2,0.1,0.5,0.1,0.7,0.2c0.1,0,0.2,0.1,0.3,0.1c0.1,0,0.1,0,0.1-0.1
	c0,0,0,0,0-0.1c0-0.1,0-0.2,0-0.3c-0.1-0.7-0.1-1.4-0.1-2.2c0-0.2,0-0.3,0-0.5C45.9,84.7,45.9,84.5,45.9,84.4L45.9,84.4z"/>
<path class="st2" d="M53,86.2c-0.1,0-0.2,0-0.3,0c-0.2,0-0.2,0-0.2,0.1c0.2,0.2,0.4,0.3,0.7,0.5c0.1,0,0.2,0.1,0.3,0.2
	c0.2,0.1,0.4,0.1,0.4,0.1c0,0,0.1,0,0.1-0.1c0-0.2,0-0.4-0.1-0.5c0,0-0.1-0.1-0.1-0.1c-0.1,0-0.2,0-0.3-0.1
	C53.3,86.3,53.1,86.3,53,86.2 M51.6,85C51.6,85,51.6,85,51.6,85c0-0.1,0-0.2,0.1-0.2s0.1-0.1,0.2-0.1c0,0,0.1,0,0.1,0
	c0.1,0,0.1,0.1,0.1,0.2c0,0.2-0.1,0.4-0.2,0.5c0,0-0.1,0-0.1,0c0,0,0,0-0.1,0c-0.1,0-0.1,0-0.1-0.1c0,0,0,0,0,0c0-0.1,0-0.1,0.1-0.1
	C51.6,85.1,51.6,85,51.6,85L51.6,85z M50.8,84.9c0-0.1,0.1-0.1,0.2-0.1c0.1,0,0.1,0,0.2,0c0,0.1,0,0.3-0.1,0.4c0,0-0.1,0.1-0.2,0.1
	c-0.1,0-0.1-0.1-0.1-0.2V84.9z M50.2,85c0.1,0,0.2,0.1,0.2,0.1c0,0.1,0.1,0.1,0.1,0.2c0,0,0,0-0.1,0.1c0,0-0.1,0-0.1,0
	c-0.1,0-0.1,0-0.2-0.1c0-0.1-0.1-0.1-0.1-0.2c0,0,0-0.1,0-0.1C50.1,85,50.2,85,50.2,85L50.2,85z M52.5,84C52.6,84,52.6,84,52.5,84
	l0.1-0.3c0-0.1-0.1-0.1-0.1-0.2c-0.1-0.1-0.1-0.1-0.2-0.1c-0.1,0-0.1,0-0.2,0.1c0,0,0,0,0,0l-0.1,0c-0.2,0-0.3,0-0.5,0.1
	c0,0-0.1,0-0.1,0c0,0-0.1,0-0.1-0.1l0.1-0.5c0-0.1,0-0.1,0.1-0.2c0,0,0,0-0.1-0.1c-0.1,0-0.2-0.1-0.3-0.1c-0.1,0-0.1,0-0.2,0.1
	c0,0.1-0.1,0.1-0.1,0.2c0,0.1,0,0.2,0,0.2c0,0.1,0,0.1,0,0.2l-0.1,0.3c-0.1,0.1-0.3,0.1-0.4,0.1c-0.2,0-0.4,0.1-0.6,0.2c0,0,0,0,0,0
	l-0.1-0.1c-0.1,0.1-0.1,0.1-0.1,0.1c0,0,0,0,0,0.1c0,0.1,0.1,0.1,0.1,0.1c0,0,0,0.1,0,0.1c0,0,0.1,0.1,0.1,0.1
	c0.3-0.1,0.5-0.1,0.8-0.1c0,0,0.1,0,0.1,0.1c0,0.1,0,0.1-0.1,0.1c-0.3,0.1-0.6,0.2-0.9,0.2c-0.2,0-0.2,0.1-0.2,0.1
	c0.1,0.3,0.2,0.5,0.4,0.7c0,0,0.1,0.1,0.2,0.2c0.1,0.1,0.1,0.1,0.2,0.1c0.1,0,0.3-0.1,0.4-0.1c0.6-0.2,0.9-0.2,1.1,0
	c0.1,0.1,0.3,0.1,0.5,0c0,0,0,0,0,0c0.1-0.1,0.1-0.2,0.3-0.3c0.1-0.1,0.1-0.2,0.2-0.2c0.1-0.2,0.2-0.3,0.3-0.4c0,0,0-0.1,0.1-0.1
	c0,0-0.1-0.1-0.2-0.1c-0.5-0.2-1-0.2-1.5-0.2c-0.1,0-0.1,0-0.2,0c0,0-0.1,0-0.1-0.1c0,0,0,0,0,0c0-0.1,0-0.1,0.1-0.1
	c0.1,0,0.1,0,0.2,0c0.1,0,0.2,0,0.3-0.1L52.5,84z M51,86.5c0,0-0.1-0.1-0.1-0.1c0,0,0,0,0,0l0.5-0.1c0.1,0.1,0.2,0.1,0.2,0.2
	c0,0,0,0,0,0.1c0,0,0,0,0,0C51.3,86.6,51.1,86.6,51,86.5C51,86.5,51,86.5,51,86.5L51,86.5z M51.3,87c0.1,0,0.2-0.1,0.3-0.2
	c0.1-0.1,0.1-0.1,0.2-0.2c0,0,0.1,0,0.1,0.1c0.1,0.1,0.2,0.3,0.2,0.4c0,0.1,0,0.1-0.1,0.1c-0.1,0.1-0.3,0.1-0.4,0.1
	c-0.6,0-1-0.1-1.1-0.2c-0.1-0.2-0.2-0.4-0.1-0.7c0,0,0-0.1,0-0.1c0,0,0,0,0.1,0s0.1,0,0.1,0.1c0,0.2,0.1,0.3,0.2,0.4
	c0.1,0.1,0.1,0.2,0.2,0.2h0C51.2,87.1,51.3,87,51.3,87L51.3,87z M52.5,88c0,0,0.1,0,0.2,0c0.1,0,0.2,0,0.3,0c0,0,0,0,0-0.1
	c0-0.2-0.1-0.4-0.2-0.5c0,0-0.1-0.1-0.1-0.1c-0.1-0.1-0.1-0.2-0.2-0.2c0,0-0.1-0.2-0.4-0.4c-0.1-0.1-0.1-0.1-0.2-0.2
	c0,0-0.1,0-0.1-0.1s0,0,0.1,0c0,0,0.1,0,0.1,0c0.1,0,0.1,0,0.1-0.1c-0.1-0.2-0.3-0.3-0.5-0.3c-0.3,0-0.6,0-0.9,0.1l-0.1,0
	c-0.2,0-0.4,0.1-0.6,0.1c-0.1,0-0.2,0-0.3,0c-0.1,0-0.1,0-0.1,0.1c0.1,0.1,0.1,0.2,0.2,0.3c0,0-0.1,0.1-0.2,0.2
	c-0.1,0-0.1,0.1-0.2,0.1c-0.1,0.1-0.3,0.2-0.4,0.3c-0.1,0.1-0.1,0.1-0.2,0.2c0,0,0,0,0,0.1c0,0,0.1,0.1,0.2,0.1
	c0.1,0,0.3,0.1,0.4,0.1c0.1,0,0.1,0,0.1-0.1c0-0.1,0-0.1,0.1-0.2c0-0.1,0.1-0.2,0.2-0.3c0,0,0,0,0,0c0.1-0.1,0.1-0.2,0.2-0.2
	c0,0,0.1,0.1,0.1,0.2c0,0.1,0,0.2,0,0.3c0.1,0.3,0.2,0.5,0.4,0.7c0,0,0.1,0,0.1,0c0.2,0,0.4,0.1,0.7,0.1c0.1,0,0.4,0,0.9,0.1
	c0,0-0.1,0-0.1,0C52.2,87.9,52.4,88,52.5,88L52.5,88z M49.2,83.4c-0.1-0.1-0.2-0.2-0.3-0.2c-0.1,0-0.2,0.1-0.2,0.1
	c0,0.1-0.1,0.1-0.1,0.2c-0.1,0.1-0.2,0.2-0.3,0.3c-0.1,0.1-0.2,0.2-0.2,0.3c0,0.1-0.1,0.2-0.1,0.3c0,0,0,0,0,0.1c0,0,0,0.1,0.1,0.1
	c0.2,0,0.4-0.2,0.6-0.3c0.1-0.1,0.3-0.2,0.4-0.3c0,0-0.1,0-0.1,0.1c0.3-0.2,0.4-0.4,0.4-0.4S49.3,83.5,49.2,83.4L49.2,83.4z
	 M48.7,86.9c0-0.2,0-0.4,0.1-0.6c0.1-0.1,0.1-0.3,0.1-0.4c0,0-0.1-0.1-0.2-0.1c-0.3-0.1-0.4-0.2-0.3-0.3c0,0,0,0,0,0
	c0.1-0.1,0.2-0.2,0.3-0.3c0,0,0,0,0,0C48.9,85,49,85,49,85c0.2-0.1,0.3-0.3,0.3-0.4c0,0-0.1-0.1-0.2-0.2c-0.1,0-0.1-0.1-0.2-0.1
	c-0.1,0.1-0.3,0.2-0.4,0.4c-0.2,0.3-0.3,0.5-0.4,0.5c-0.1,0.1-0.1,0.1-0.2,0.2c-0.1,0.1-0.2,0.2-0.2,0.2c0,0,0,0.1-0.1,0.1
	c-0.5,0.4-0.8,0.7-0.8,0.9c0,0,0,0.1,0.1,0.1c0,0,0.1,0,0.1,0c0.3-0.1,0.6-0.2,0.8-0.3c0.1,0,0.1-0.1,0.1-0.1c0,0,0,0,0.1,0
	c0,0,0.1,0,0.1,0.1c0,0.2,0.1,0.3,0,0.3c-0.1,0.3-0.1,0.7-0.1,1c0,0.1,0,0.1,0,0.2c0.1,0,0.2,0.1,0.3,0.1c0.1,0,0.2-0.1,0.2-0.2
	C48.6,87.4,48.6,87.1,48.7,86.9L48.7,86.9z"/>
<path class="st2" d="M59,86C59,86,59,86,59,86c-0.5,0.1-0.9,0.2-1.2,0.3s-0.6,0.1-0.7,0.2l-0.2,0c-0.1,0-0.2,0-0.2,0.1
	c0,0.1,0,0.2,0.1,0.3c0,0,0.1,0,0.1,0c0.7-0.2,1.5-0.3,2.2-0.4c0,0,0,0,0,0c0,0,0.1,0.1,0.1,0.3c0,0.2,0,0.4-0.1,0.6
	c0,0-0.1,0.1-0.2,0.1c0,0-0.1,0-0.1,0c0,0-0.1,0-0.2,0l-0.5-0.1c-0.2,0-0.4-0.1-0.5-0.1c0,0,0,0.1,0.1,0.2c0.4,0.2,0.9,0.4,1.3,0.5
	c0,0,0,0,0.1,0l0.4,0l0,0c0.1,0,0.1,0,0.1-0.1c0,0,0-0.2,0.1-0.5c0,0,0-0.1,0-0.3c0,0,0,0,0,0c0-0.2,0-0.5,0-0.7
	c0.3-0.1,0.6-0.1,0.9-0.1c0.1,0,0.3,0,0.6,0.1c0.1,0.1,0.3,0.1,0.4,0.1c0.1-0.1,0.1-0.1,0-0.2c-0.1-0.1-0.2-0.2-0.3-0.4
	c0,0-0.1,0-0.1,0c-0.8,0-1.3,0-1.5,0l-0.1,0c0,0,0,0,0,0c0,0,0-0.1,0-0.1c0,0,0-0.1,0.1-0.1l0.6-0.3c0.1,0,0.1-0.1,0.1-0.1
	s0-0.1-0.1-0.1c0,0-0.1,0-0.1-0.1c-0.3-0.1-0.5-0.1-0.8-0.1c0,0-0.2,0-0.6,0.1l-0.4,0.1c-0.2,0-0.3,0.1-0.5,0.1c0,0,0,0,0,0
	c-0.2,0-0.4,0.1-0.6,0.1c0,0-0.1,0-0.1,0c0,0,0,0,0,0.1c0.1,0.1,0.2,0.2,0.3,0.3c0,0,0.1,0.1,0.1,0.1c0.1,0,0.1,0,0.2-0.1
	c0.4-0.2,0.8-0.3,1.2-0.4c0.1,0,0.2-0.1,0.3-0.1c0.1,0,0.2,0,0.2,0c0,0,0,0,0,0c0,0.1-0.1,0.2-0.1,0.2c-0.1,0.1-0.2,0.1-0.3,0.1
	c-0.2,0-0.4,0-0.4,0.1C58.8,85.8,58.8,85.8,59,86L59,86 M59,83.9c0.2-0.1,0.4-0.1,0.6-0.1c0.1,0,0.2,0,0.2,0.1
	c0.1,0,0.1,0.1,0.1,0.2c0,0.2,0,0.4-0.2,0.5h0c0,0-0.1-0.1-0.2-0.1c-0.7,0.1-1.1,0.2-1.2,0.2l0,0c0,0,0,0,0,0c0-0.3,0-0.4,0-0.5
	c0,0,0.1,0,0.1-0.1c0.1,0,0.2-0.1,0.3-0.1L59,83.9z M54.8,87.3c0.1,0,0.1,0,0.2,0c0.1,0,0.2-0.1,0.3-0.1l0.6-0.4c0,0,0,0,0.1,0
	c0.1,0,0.2-0.1,0.2-0.2c0-0.1,0.1-0.2,0.1-0.2c0.1-0.2,0.2-0.4,0.3-0.6c0.1-0.1,0.2-0.2,0.3-0.4c0-0.1,0.1-0.1,0.1-0.2
	c0.1-0.2,0.2-0.3,0.2-0.4c0,0,0,0,0.1-0.1c0,0,0,0,0-0.1c0-0.1,0.1-0.1,0.1-0.2c0,0,0,0,0,0c0,0,0,0,0,0c0.1,0.3,0.3,0.5,0.6,0.7
	c0,0,0.3-0.1,0.8-0.2c0.3-0.1,0.6-0.1,0.9,0c0.1,0,0.2,0,0.2,0.1c0.1,0,0.1,0,0.2,0c0-0.1,0.1-0.1,0.1-0.2c0,0,0,0,0,0
	c0.1-0.3,0.3-0.7,0.5-0.9c0,0-0.1-0.1-0.2-0.2c-0.4-0.2-0.9-0.2-1.3-0.1c-0.5,0.1-1.1,0.2-1.6,0.3c0,0,0,0-0.1,0c0-0.1,0-0.2,0-0.2
	c0,0,0,0,0.1,0c0,0,0.1,0,0.3-0.1c0.3-0.1,0.5-0.1,0.8-0.1c0.4-0.1,0.8-0.2,1.3-0.2c0,0,0.1,0,0.1-0.1c0-0.1-0.1-0.2-0.1-0.2
	c0,0,0,0,0-0.1c0,0-0.1-0.1-0.1-0.1c0,0-0.1-0.1-0.2-0.1c-0.2,0-0.3,0.1-0.5,0.1c-0.3,0-0.6,0.1-0.9,0.2C58,83,57.8,83,57.7,83
	c-0.1,0-0.1,0-0.2-0.1l-0.1,0c-0.1,0-0.1,0-0.1,0.1c-0.1,0.2-0.1,0.5-0.1,0.7c0,0,0,0.1,0,0.1c0,0.1,0,0.1,0,0.2l0,0.2
	c0,0.1-0.1,0.1-0.1,0.2L56.7,85c0,0,0,0,0,0c0,0.1-0.1,0.2-0.1,0.3c0,0,0,0,0,0.1c-0.1,0.2-0.2,0.3-0.3,0.5
	c-0.2,0.3-0.4,0.5-0.7,0.8c0,0,0,0,0,0c0,0-0.1,0-0.1,0.1C55,87,54.8,87.2,54.8,87.3z M58.8,84.5c0.2,0,0.5,0,0.7-0.2
	c0,0,0.1-0.1,0.1-0.2c0-0.1,0-0.1-0.1-0.2c0,0,0,0,0,0c-0.2,0-0.4,0.1-0.7,0.2c-0.1,0-0.1,0-0.1,0c-0.1,0-0.1,0-0.1,0c0,0,0,0,0,0.1
	c0,0,0.1,0.1,0.1,0.1l0,0C58.6,84.5,58.7,84.5,58.8,84.5L58.8,84.5z"/>
<path class="st2" d="M65.1,82.8c-0.1,0-0.3,0.1-0.4,0.1c-0.1,0-0.1,0-0.1,0.1c0,0.1,0.1,0.2,0.3,0.3c0.1,0.1,0.2,0.1,0.4,0.2
	c0,0,0.1,0,0.1-0.1c0.1-0.2,0.2-0.4,0.3-0.5c0-0.1,0-0.1,0.1-0.2c0,0,0,0-0.1,0C65.5,82.7,65.3,82.8,65.1,82.8
	C65.1,82.8,65.1,82.8,65.1,82.8 M64.2,83.4c-0.1-0.1-0.2-0.2-0.3-0.2c-0.1,0-0.2,0-0.2,0.1c-0.1,0.1-0.1,0.3,0,0.6
	c0,0.1,0.1,0.1,0.3,0.1c0.1,0,0.3,0,0.4,0c0.2,0,0.3-0.1,0.3-0.2C64.7,83.7,64.5,83.6,64.2,83.4L64.2,83.4z M64.2,86.1
	c-0.4,0.1-0.7,0.2-1.1,0.3c0,0,0,0.2,0.2,0.4c0.7-0.2,1.3-0.3,2-0.4h0c0,0,0.1,0,0.1,0.1V87c0,0.1-0.1,0.2-0.1,0.3
	c0,0-0.1,0.1-0.1,0.1c-0.1,0-0.3,0-0.4,0.1c0,0,0,0,0,0c-0.2,0-0.4-0.1-0.7-0.1c0,0,0,0,0,0.1c0,0.1,0.1,0.2,0.3,0.3
	c0.4,0.2,0.8,0.3,1.3,0.4h0c0,0,0.1,0,0.1-0.1c0.2-0.3,0.3-0.6,0.3-1c0-0.3,0-0.5,0.1-0.8c0.1,0,0.3-0.1,0.4,0c0.2,0,0.5,0,0.7,0
	c0.3,0.1,0.4,0.1,0.4,0.1c0.1,0,0.1,0,0.1-0.1c0-0.1,0-0.1,0-0.2c0-0.1,0-0.1,0-0.2c0-0.1-0.1-0.2-0.2-0.2c-0.5,0-1,0-1.5,0.1
	c-0.1,0-0.1,0-0.1-0.1s0-0.1,0-0.2c0.1,0,0.2-0.1,0.3-0.1c0.1,0,0.2,0,0.2-0.1c0.1-0.1,0.2-0.1,0.4-0.2c0.4,0,0.8,0,1.2-0.1l0.1,0
	c0.1,0,0.1,0,0.1-0.1c0,0,0,0,0,0c0-0.2-0.4-0.5-1.2-0.9c0,0,0,0,0,0c-0.1,0-0.3-0.1-0.8-0.1c0,0,0,0-0.1,0c0,0,0.1-0.1,0.4-0.4
	c0.1-0.1,0.2-0.2,0.3-0.3c0.2-0.1,0.3-0.2,0.3-0.2c-0.1-0.2-0.3-0.3-0.6-0.4h0c-0.1,0-0.1,0.1-0.3,0.2c-0.2,0.4-0.5,0.7-0.8,1
	c-0.2,0.1-0.4,0.2-0.7,0.3c-0.2,0.1-0.6,0.2-1.1,0.4c-0.2,0-0.2,0-0.3,0.1v0c0,0.1,0,0.1,0.1,0.1c0,0,0.1,0,0.1,0
	c0.2-0.1,0.5-0.1,0.7-0.1c0.5-0.1,0.9-0.2,1.1-0.3c0.4-0.1,0.8-0.2,1.3-0.3c0,0,0,0,0,0c0.1,0,0.2,0,0.3,0.1
	c0.1,0.1,0.2,0.1,0.2,0.2c0,0.1-0.1,0.2-0.2,0.3c-0.1,0.1-0.2,0.1-0.3,0.1c-0.3-0.1-0.6-0.2-0.9-0.2c-0.6,0.1-1.2,0.3-1.8,0.5
	c0,0,0,0-0.1,0c0,0-0.1,0-0.1,0.1c0,0.2,0.1,0.3,0.3,0.4c0,0,0.1,0,0.1,0c0.1-0.1,0.3-0.1,0.4-0.2c0.2-0.1,0.4-0.1,0.5-0.1
	c0.1,0,0.1-0.1,0.2-0.2c0.1-0.1,0.2-0.2,0.3-0.2c0.1,0,0.1,0,0.1,0.1c0,0-0.1,0.1-0.2,0.2c-0.1,0.1-0.3,0.2-0.4,0.1
	c-0.1,0-0.1,0.1-0.1,0.1l0.1,0.3c0,0,0,0.1-0.1,0.1C64.9,85.9,64.5,86,64.2,86.1z M62.4,85.3c0,0.1,0.1,0.1,0.4,0.2
	c0.1,0,0.2,0,0.3,0.1c0.1,0,0.2,0,0.2-0.1c0,0,0,0,0,0c-0.1-0.2-0.1-0.4,0-0.6c0,0,0-0.1-0.1-0.1c-0.2,0-0.4,0.1-0.5,0.2
	C62.5,85,62.4,85.2,62.4,85.3L62.4,85.3z"/>
<path class="st2" d="M76.1,84c0.1,0,0.2,0,0.3,0c0,0,0,0,0,0c0-0.1,0-0.2-0.1-0.2c-0.2-0.1-0.3-0.2-0.5-0.3c-0.1,0-0.1-0.1-0.2-0.1
	c0,0,0,0,0,0c-0.1,0-0.1,0-0.1,0.1s0,0.2,0,0.5c0,0.1,0.1,0.1,0.2,0.1c0,0,0,0,0.1,0c0,0,0,0,0,0c0,0,0,0,0.1,0
	C75.9,84,76,84,76.1,84 M73.3,85.7L73.3,85.7c-0.1-0.1-0.1-0.1-0.1-0.1c-0.2-0.1-0.4-0.2-0.6-0.2c0,0-0.1,0-0.1-0.1c0,0,0,0,0,0
	l-0.1,0c0,0-0.1,0-0.1,0.1c-0.1,0.1-0.1,0.2-0.1,0.3c0,0.1,0,0.2,0.1,0.2c0.3,0.1,0.5,0.1,0.8,0c0,0,0.1,0,0.1,0
	C73.3,85.8,73.3,85.7,73.3,85.7L73.3,85.7z M72,84.6c0,0.2,0.1,0.3,0.2,0.4c0,0,0,0,0,0c0,0,0,0,0.1,0c0.1,0,0.1,0,0.2-0.1
	c0.3-0.1,0.5-0.1,0.8-0.1c0.1,0,0.2,0,0.3,0l0,0c0,0.2,0,0.4,0,0.6c0,0.2,0,0.3,0.1,0.5c0,0.3,0,0.7,0,1c0,0,0,0,0,0
	c-0.1,0.1-0.3,0.1-0.4,0h0c-0.2,0-0.4,0-0.5-0.1c0,0-0.1,0-0.1,0v0c0.1,0.1,0.1,0.1,0.2,0.2c0,0,0.1,0,0.1,0.1
	c0.3,0.2,0.6,0.3,1,0.4c0.1,0,0.1,0,0.2,0.1c0.1,0.1,0.2,0.1,0.4,0.1c0,0,0,0,0.1,0c0,0,0-0.1,0-0.1c0-0.1,0-0.2-0.1-0.3
	c0-0.2-0.1-0.4-0.1-0.6l0-0.8c0,0,0,0,0.1,0c0.2,0.1,0.5,0.2,0.7,0.3c0,0,0,0,0.1,0l0.3,0.2c0.1,0.1,0.2,0.2,0.2,0.3
	c0,0.1,0.1,0.2,0.4,0.2c0.1,0,0.5,0,1.1,0c0.2,0,0.3,0,0.5-0.1c0,0,0,0,0-0.1c-0.2-0.1-0.4-0.2-0.7-0.2h0l0,0l-0.8-0.2
	c0,0,0,0-0.1,0c-0.5-0.2-0.9-0.5-1.3-0.8c0.2-0.2,0.4-0.3,0.7-0.4c0.1,0,0.1-0.1,0.2-0.1c0.1,0,0.2-0.1,0.3-0.1c0-0.1,0-0.1-0.1-0.2
	c-0.1-0.1-0.1-0.1-0.2-0.1c-0.1,0-0.1,0-0.2,0.1c0,0,0,0,0,0c0,0-0.3,0.2-0.7,0.4c0,0-0.1,0-0.1,0.1c-0.1,0-0.2,0.1-0.2,0.1
	c-0.1,0-0.1,0-0.2-0.1c0-0.1-0.1-0.2,0-0.4c0-0.1,0-0.1,0.1-0.2c0,0,0,0,0.1,0c0.1,0,0.3-0.1,0.6-0.2c0,0,0,0,0,0c0.1,0,0.1,0,0.2,0
	c0,0,0.1,0,0.1-0.1c-0.1-0.1-0.2-0.3-0.3-0.4c0,0,0,0-0.1,0l-0.6,0.1c0,0-0.1,0-0.1-0.1c0,0,0,0,0,0c0-0.3,0-0.7,0.1-1l0,0
	c0,0,0.1-0.1,0.1-0.1v0c-0.1-0.1-0.2-0.1-0.4-0.1l0,0h0c0,0,0,0,0,0c-0.1,0-0.1,0-0.2,0c0,0-0.1,0.2-0.1,0.4c0,0.1,0,0.2,0,0.3
	c0,0,0,0.3-0.1,0.7c-0.1,0-0.2,0.1-0.3,0.1c-0.1,0-0.2,0-0.3,0.1c0,0-0.2,0-0.6,0.1L72,84.6C72.1,84.6,72,84.6,72,84.6L72,84.6z
	 M73.1,86c-0.2,0.1-0.4,0.2-0.6,0.3c0,0,0,0,0,0c-0.3,0.1-0.5,0.2-0.7,0.3c-0.2,0.1-0.3,0.1-0.3,0.2c0,0,0.1,0.1,0.3,0.3
	c0,0,0.1,0.1,0.2,0.1c0,0,0.1-0.1,0.2-0.2l0.6-0.4c0.5-0.4,0.8-0.7,0.8-0.7c0.1,0,0.1-0.1,0.1-0.1s0-0.1-0.1-0.1
	C73.4,85.9,73.2,85.9,73.1,86z"/>
<path class="st2" d="M80.6,84.3L80.6,84.3c-0.1,0-0.1,0-0.1-0.1c0-0.1,0-0.1,0.1-0.1c0.2-0.1,0.3-0.1,0.5-0.2c0-0.1,0.1-0.2,0-0.3
	c0,0-0.1,0-0.1,0l-0.1,0l-0.3,0.1c0,0,0,0,0-0.1c0,0,0-0.1,0.1-0.2c0.1-0.1,0.2-0.1,0.4-0.1c0.1,0,0.2,0,0.2,0.1
	c0.1,0.4,0.1,0.7,0.1,1.1c0,0,0,0.1-0.1,0.1c0,0,0,0,0,0c0,0-0.1,0-0.1,0c0,0-0.1-0.1-0.1-0.2C81.1,84.3,80.9,84.3,80.6,84.3
	 M80.8,86.2C80.8,86.2,80.7,86.2,80.8,86.2c-0.2,0-0.3,0-0.4-0.1c0,0-0.1-0.1-0.1-0.2c0-0.1,0-0.2,0.1-0.2c0-0.1,0.1-0.1,0.2-0.1
	c0.1,0,0.2,0.1,0.2,0.2L80.8,86.2z M78.9,86.8L78.2,87c-0.2,0.1-0.3,0.1-0.3,0.2s0.1,0.1,0.3,0.1c0.3,0,0.6-0.1,0.9-0.2
	c0,0,0.1,0,0.1,0c0.1,0,0.1-0.1,0.2-0.2c0-0.1,0.1-0.2,0.2-0.3c0.1-0.1,0.4,0,1.1,0.1c0.2,0.1,0.5,0.2,0.8,0.2
	c0.2,0,0.5,0.1,0.6,0.3c0,0,0.1,0.1,0.1,0.1c0,0.1,0.1,0.2,0.1,0.3c0,0,0.1,0.1,0.3,0.1c0.2,0,0.3,0,0.5,0c0.1,0,0.3,0,0.6,0
	c0.2,0,0.4,0,0.6,0c0.1,0,0.3-0.1,0.4-0.1c0.1,0,0.1,0,0.1-0.1s-0.1-0.1-0.2-0.1c-0.4-0.1-1.1-0.3-2.1-0.5l-1-0.4
	c-0.1,0-0.1-0.1-0.1-0.1c0,0,0-0.1,0-0.1c0-0.1,0.1-0.2,0.2-0.2C81.7,86,82,86,82.3,86c0,0,0,0,0.1-0.1c0,0,0-0.1,0-0.1c0,0,0,0,0,0
	c0,0,0-0.1,0-0.1c-0.2,0-0.4-0.1-0.5,0l-0.2,0c-0.1,0-0.1,0-0.1-0.1c0,0,0,0,0-0.1c0-0.1,0.1-0.1,0.1-0.1c0,0,0.1,0,0.1,0
	c0.4-0.1,0.9-0.1,1.3,0c0.1,0,0.1,0,0.1-0.1c0,0,0,0,0,0c0-0.1-0.1-0.3-0.1-0.4c0-0.1-0.1-0.1-0.2-0.1l-0.6,0.1
	c-0.1,0-0.1,0-0.1-0.1c0-0.1,0.1-0.5,0.2-1.4c0-0.1,0.1-0.2,0.1-0.3c0-0.1-0.2-0.1-0.5-0.1c-0.6,0-1.2,0.1-1.8,0.2
	c-0.1,0-0.1,0-0.2,0c-0.1,0-0.1,0-0.1,0.1c0,0.4,0,0.9,0.2,1.3c0,0.1,0,0.1,0,0.2c0,0.1,0.1,0.2,0.2,0.2c0.2-0.1,0.5-0.2,0.7-0.3
	c0.1,0,0.2,0.1,0.3,0.1c0.1,0,0.1,0.1,0.2,0.1c-0.2,0-0.3,0.1-0.5,0.1c-0.9,0.1-1.9,0.3-2.8,0.6c-0.1,0-0.1,0.1,0,0.2
	c0.1,0.2,0,0,0,0c0.1,0.1,0.1,0.1,0.2,0.1c0.4-0.2,0.8-0.3,1.2-0.3c0,0,0,0,0,0c0.1,0,0.1,0,0.1,0.1c0,0.2-0.2,0.4-0.3,0.5
	c-0.1,0-0.2,0.2-0.4,0.4C79,86.7,78.9,86.7,78.9,86.8L78.9,86.8z"/>
<path class="st2" d="M89.4,85.3c0,0.1,0,0.3,0.1,0.4c0,0,0.1,0.1,0.1,0.1c0.1,0,0.1,0,0.2-0.1c0.1-0.1,0.1-0.2,0.1-0.4
	c0-0.2,0.1-0.4,0.1-0.6c0,0,0,0,0,0c-0.2-0.1-0.4-0.1-0.6-0.1l0,0c-0.1,0-0.1,0-0.2,0.1c0,0,0,0.1,0,0.1L89.4,85.3 M89.2,87
	c0,0.1,0.2,0.3,0.6,0.5c0.1,0.1,0.3,0.1,0.4,0.2c0,0,0.1,0,0.1,0c0.3,0.1,0.6,0.2,1,0.3c0.1,0,0.2,0,0.2-0.1c0,0,0,0,0,0
	c-0.2-0.8-0.2-1.6-0.2-2.5c-0.1-0.7-0.1-1.5,0.1-2.2c0,0,0,0,0,0c0,0,0,0,0,0c0-0.1-0.1-0.1-0.3-0.2c-0.3-0.1-0.4-0.1-0.4-0.1
	c0,0-0.1,0-0.1,0c0,0-0.1,0.1-0.1,0.2l0,1.9c0,0,0,0.1,0,0.1c0,0.1,0,0.4,0,0.7c0,1,0.1,1.5,0.1,1.5c-0.1,0.1-0.2,0.1-0.4,0.1
	c-0.3,0-0.6-0.1-0.9-0.2C89.4,87,89.3,87,89.2,87L89.2,87z M88,85.4c0,0.1,0,0.1,0,0.2c0,0.1,0,0.2-0.1,0.3c-0.1,0-0.1,0.1-0.2,0.1
	c-0.1,0-0.1,0-0.1-0.1c0,0,0-0.1,0-0.1c-0.1-0.1-0.2-0.1-0.3-0.1c0,0,0,0-0.1,0c0,0,0,0,0,0c0.2-0.1,0.4-0.3,0.6-0.3
	C87.8,85.3,87.9,85.3,88,85.4C88,85.3,88,85.3,88,85.4z M86.9,84.5c-0.4,0.5-0.9,1-1.4,1.4c0,0,0,0,0,0c0,0-0.1,0.1-0.1,0.1
	c0,0.1-0.1,0.1-0.1,0.1c0,0,0,0,0,0.1c0,0,0,0,0,0c0,0,0.1,0,0.1,0c0,0,0,0,0,0l0.1,0c0.1,0,0.2-0.1,0.4-0.1c0.1,0,0.3-0.1,0.4-0.2
	c0,0,0.1,0,0.1,0c0,0,0.1,0,0.1-0.1c0.1-0.1,0.2-0.1,0.3-0.2l0.1-0.1c0,0,0,0,0,0l0.2,0c0,0,0,0,0,0.1C87,86.6,86.9,87,86.9,87
	c0,0.2,0.2,0.4,0.4,0.5c0.1,0.1,0.5,0.1,1.1,0c0,0,0,0,0.1,0c0.1,0,0.1,0,0.2-0.1c0,0,0.1-0.1,0.1-0.1c0-0.1,0-0.3-0.1-0.4l-0.2-0.4
	c0,0,0,0-0.1,0c-0.1,0-0.1,0.1-0.2,0.2c0,0.1,0,0.2-0.1,0.3c0,0.1-0.1,0.1-0.2,0.1c-0.1,0-0.2,0.1-0.4,0.1c-0.1,0-0.2,0-0.2-0.1
	c-0.1-0.1-0.1-0.2,0-0.4c0-0.2,0.1-0.3,0.1-0.3c0.2,0,0.3,0,0.5,0c0.2,0,0.4-0.1,0.4-0.3c0,0,0,0,0,0l0.1-0.2c0-0.1,0.1-0.2,0.1-0.2
	c0-0.1,0-0.1,0-0.1c0,0,0-0.1,0-0.1c0.1-0.1,0.1-0.1,0.1-0.2c0,0,0-0.1-0.1-0.1c-0.3-0.1-0.7-0.1-1,0c-0.1,0-0.2,0.1-0.3,0.1
	c-0.1,0.1-0.2,0.1-0.4,0.2c0,0-0.1,0-0.1-0.1c0.1-0.2,0.2-0.4,0.3-0.5c0.1-0.1,0.1-0.2,0.2-0.2c0.1-0.1,0.1-0.1,0.2-0.2
	c0.1,0,0.1-0.1,0.2-0.1c0.1,0,0.3,0.1,0.4,0.2c0.1,0.1,0.2,0.1,0.4,0.1c0.1,0,0.2,0,0.3-0.1c0.2-0.1,0.3-0.2,0.3-0.2
	c0-0.1-0.1-0.2-0.4-0.2c-0.1,0-0.2,0-0.3-0.1c-0.1,0-0.2-0.1-0.2-0.1c0.1-0.1,0.2-0.2,0.3-0.4c0-0.1-0.1-0.1-0.1-0.2
	c0,0,0,0-0.1-0.1c-0.1-0.1-0.1-0.1-0.2-0.1c-0.1,0-0.2,0.2-0.5,0.4c0,0,0,0.1-0.1,0.1L86.9,84.5z"/>
<path class="st2" d="M94.9,87c0.3,0,0.6-0.1,0.9-0.4c0.2-0.2,0.2-0.4,0.2-0.5c0-0.3,0.2-0.6,0.5-0.7c0.1,0,0.1,0,0.2-0.1
	c0,0,0.1,0,0.1,0c0.1,0.5,0.2,0.9,0.2,1.4c0,0.1,0,0.3,0,0.6c0,0.5,0,0.8,0.1,0.8c0,0,0.1,0,0.2,0c0.2,0,0.3-0.1,0.3-0.2
	c0-0.3,0-0.6,0-1.1c0-0.3,0-0.7,0-1c0-0.2,0-0.4,0.1-0.5c0-0.1,0-0.1,0.1-0.2c0.2,0,0.5-0.1,0.7,0c0,0,0,0,0,0c0.1,0,0.1,0,0.2,0
	c0.1,0,0.1,0,0.2-0.1c0-0.1,0-0.1-0.1-0.2c-0.1-0.1-0.1-0.2-0.2-0.3c0-0.1-0.1-0.1-0.2-0.1c-0.1,0-0.2,0-0.3,0
	c-0.2,0-0.7,0.1-1.6,0.4h-0.1c0-0.1,0-0.3,0.2-0.4c0.1-0.1,0.3-0.2,0.7-0.2c0.1,0,0.2-0.1,0.3-0.1c0.1,0,0.3-0.1,0.4-0.2
	c0,0,0-0.1,0-0.1c0-0.1,0-0.2-0.1-0.2c-0.1-0.1-0.1-0.1-0.2-0.1c-0.4,0.1-0.8,0.1-1.1,0.3c0,0,0,0,0,0c-0.2,0-0.4,0.1-0.6,0.2
	c0,0.3,0,0.6,0,0.9c0,0.1,0,0.2-0.1,0.4l-0.1,0.3c-0.1,0.3-0.2,0.5-0.2,0.5c0,0,0,0.1,0,0.1l-0.2,0.3C95.1,86.7,95,86.8,94.9,87
	L94.9,87 M94.7,82.4c-0.1,0-0.2,0-0.2,0.1c-0.2,0.1-0.2,0.3-0.2,0.5c0,0.1,0.1,0.2,0.1,0.2c0.1,0.1,0.3,0.2,0.5,0.2
	c0.1,0,0.2,0,0.2-0.1c0.1-0.3,0-0.6-0.3-0.8L94.7,82.4L94.7,82.4z M93.5,86.7c0-0.1,0-0.2,0-0.3c0,0,0-0.1,0-0.1c0-0.1,0-0.2,0-0.2
	s0.1,0,0.1-0.1c0.1,0,0.1,0,0.2,0c0.1,0,0.1,0,0.2,0c0.1,0.2,0.1,0.4,0.1,0.7c0,0,0,0.1-0.1,0.1c-0.1,0-0.1,0.1-0.2,0.1
	c-0.1,0-0.2,0-0.3,0C93.6,86.8,93.6,86.8,93.5,86.7L93.5,86.7z M93.8,85.6c-0.2,0.1-0.3,0.1-0.5,0.2c0,0-0.3,0.1-0.8,0.2
	c-0.1,0-0.2,0-0.2,0.1c0,0.1,0,0.1,0,0.2c0,0.1,0.1,0.1,0.2,0.2l0.1,0c0.2-0.1,0.5-0.2,0.7-0.2l0,0c0,0,0,0,0,0c0,0,0,0,0,0
	c0,0-0.1,0.1-0.1,0.1c0,0,0,0,0,0.1c0,0-0.1,0.1-0.1,0.1c-0.3,0.3-0.4,0.5-0.4,0.5c0,0,0,0.1,0.1,0.1c0.1,0.1,0.2,0.1,0.4,0.1
	c0.1,0,0.1,0,0.2-0.1c0.1-0.2,0.2-0.2,0.5,0l0,0c0,0,0,0,0,0c0.2,0.1,0.4,0.2,0.6,0.2c0.1,0,0.1,0,0.2-0.1c0.1-0.2,0.1-0.5,0-0.7
	c0,0,0,0,0,0c0-0.1,0-0.1,0-0.2c0.2,0,0.3,0,0.5,0c0,0,0,0,0,0c0.1-0.1,0.1-0.1,0.1-0.1c0-0.1-0.1-0.2-0.3-0.2
	c-0.1,0-0.2-0.1-0.2-0.1v0c0,0,0-0.1,0.1-0.1c0.2,0,0.4-0.1,0.4-0.1c0,0,0.1,0,0.1,0c0.2,0,0.3-0.1,0.3-0.1c0-0.1-0.1-0.2-0.1-0.2
	c0,0-0.1-0.1-0.2-0.1c-0.1,0-0.3,0-0.4,0.1c0,0-0.1-0.1-0.1-0.1c0,0,0-0.1,0-0.1c0.1-0.1,0.2-0.1,0.4-0.1c0.2-0.1,0.3-0.2,0.3-0.3
	c0,0,0-0.1-0.1-0.1c-0.1,0-0.1,0-0.2,0c0,0-0.1,0-0.1,0c0,0,0,0,0,0c0-0.1,0.1-0.1,0.2-0.2c0.2-0.1,0.2-0.2,0.1-0.3
	c-0.1,0-0.1-0.1-0.2-0.1c0,0,0,0-0.1,0c0,0,0,0,0,0c0,0,0.1-0.1,0.2-0.1c0.2-0.1,0.3-0.2,0.3-0.3l0,0v0c-0.4-0.1-0.7-0.1-1.1,0.1
	c-0.5,0.1-0.9,0.2-1.4,0.3c0,0.1,0.1,0.2,0.1,0.3c0.1,0,0.2-0.1,0.3-0.1c0.1,0,0.2,0,0.2,0c-0.1,0.1-0.2,0.3-0.2,0.4
	c0,0,0,0.1,0,0.1c0,0.1,0,0.1,0.1,0.1c0,0,0,0,0,0c0,0,0.1,0,0.1,0c0.1,0,0.2-0.2,0.4-0.4c0.1-0.1,0.2-0.2,0.4-0.2
	c0,0,0.1,0,0.1,0.1c0,0.1-0.1,0.2-0.3,0.4c-0.3,0.2-0.7,0.3-1,0.4c-0.1,0-0.1,0-0.1,0.1c0,0,0,0-0.1,0c0,0-0.1,0-0.1,0.1
	c0,0.1,0.1,0.2,0.2,0.3c0,0,0.1,0,0.1,0c0.2-0.1,0.5-0.2,0.7-0.2c0,0,0.1,0,0.1,0c0,0,0,0,0,0.1c0,0,0,0,0,0.1L93.8,85.6z"/>
<path class="st3" d="M69.1,91v3h-0.6l-0.4-1.4v1.4h-0.6v-3h0.6l0.4,1.4V91H69.1 M66.4,93c0-0.3-0.1-0.8-0.1-1.3
	c-0.1,0.6-0.1,1-0.1,1.3H66.4z M66.8,91l0.4,3h-0.8l0-0.5h-0.3l0,0.5h-0.8l0.4-3H66.8z M65.1,91v3h-0.7v-1.3h-0.2v1.3h-0.7v-3h0.7
	v1.1h0.2V91H65.1z M63,91v2c0,0.2,0,0.3,0,0.5c0,0.1-0.1,0.2-0.1,0.3c-0.1,0.1-0.2,0.2-0.3,0.2c-0.1,0.1-0.3,0.1-0.4,0.1
	c-0.2,0-0.3,0-0.5-0.1c-0.1,0-0.2-0.1-0.3-0.2c-0.1-0.1-0.1-0.2-0.1-0.3c0-0.1,0-0.3,0-0.7V91H62v2.3c0,0.1,0,0.2,0,0.3
	c0,0,0,0.1,0.1,0.1c0,0,0.1,0,0.1-0.1c0-0.1,0-0.2,0-0.3V91H63z M61,91l-0.3,3h-0.9c-0.1-0.5-0.2-1-0.2-1.6c0,0.3-0.1,0.8-0.2,1.6
	h-0.9l-0.3-3h0.7l0.1,1.1l0.1,1c0-0.5,0.1-1.2,0.2-2.1H60c0,0.1,0,0.4,0.1,1l0.1,1.2c0-0.7,0.1-1.5,0.2-2.2L61,91z"/>
<path class="st3" d="M79.9,93c0-0.3-0.1-0.8-0.1-1.3c-0.1,0.6-0.1,1-0.1,1.3H79.9 M80.3,91l0.4,3h-0.8l0-0.5h-0.3l0,0.5h-0.8l0.4-3
	H80.3z M78.5,91v3h-0.7l-0.4-1.4v1.4h-0.6v-3h0.6l0.4,1.4V91H78.5z M76.4,91v3h-0.8v-3H76.4z M75.2,91v3h-0.7v-1.3h-0.2v1.3h-0.8v-3
	h0.8v1.1h0.2V91H75.2z M73.1,92.4h-0.8v-0.5c0-0.1,0-0.2,0-0.3c0,0-0.1-0.1-0.1-0.1c-0.1,0-0.1,0-0.1,0.1c0,0.1,0,0.2,0,0.3v1.4
	c0,0.1,0,0.2,0,0.3c0,0.1,0.1,0.1,0.2,0.1c0,0,0,0,0.1-0.1c0-0.1,0-0.2,0-0.3v-0.4h0.8V93c0,0.2,0,0.4-0.1,0.7
	c-0.1,0.1-0.2,0.3-0.3,0.3c-0.2,0.1-0.3,0.2-0.5,0.1c-0.2,0-0.4,0-0.5-0.1c-0.1-0.1-0.2-0.2-0.3-0.4c-0.1-0.2-0.1-0.4-0.1-0.7v-0.9
	c0-0.2,0-0.3,0-0.5c0-0.1,0.1-0.2,0.1-0.3c0.1-0.1,0.2-0.2,0.3-0.2c0.3-0.1,0.7-0.1,1,0c0.1,0.1,0.2,0.2,0.3,0.3
	c0.1,0.2,0.1,0.4,0.1,0.6V92.4z"/>
<ellipse class="st4" cx="69.6" cy="69.5" rx="48.8" ry="32.1"/>
<ellipse class="st5" cx="69.6" cy="69.6" rx="39.9" ry="31.7"/>
<line class="st6" x1="42.6" y1="42.7" x2="96.3" y2="42.7"/>
<line class="st7" x1="43.2" y1="96.5" x2="96.1" y2="96.5"/>
<path class="st8" d="M23.9,102.7l-0.2,0.2l-1.8-1.4l0.2-0.2l0.1,0.1c0.1,0.1,0.2,0.1,0.4,0c0.1-0.1,0.2-0.1,0.3-0.2
	c0.2-0.3,0.5-0.5,0.7-0.8l4.5-5.8c0.2-0.3,0.4-0.6,0.6-0.9c0.1-0.1,0.1-0.2,0.1-0.4c0-0.1,0-0.2-0.1-0.3L28.6,93l0.2-0.2l1.8,1.4
	l-0.2,0.2l-0.1-0.1c-0.1-0.1-0.2-0.1-0.3-0.1c-0.1,0.1-0.3,0.1-0.3,0.2c-0.2,0.3-0.5,0.5-0.7,0.8l-4.5,5.8c-0.2,0.3-0.4,0.6-0.6,0.9
	c-0.1,0.1-0.1,0.2-0.1,0.4c0,0.1,0,0.2,0.1,0.3L23.9,102.7"/>
<path class="st8" d="M35.1,97.1l-0.2,0.3c-0.2,0-0.4,0.1-0.8,0.4c-0.2,0.2-0.7,0.7-1.5,1.5l-5.6,5.9l-0.1-0.1l3.3-7.9
	c0.5-1.1,0.8-1.7,0.8-1.9c0.1-0.2,0-0.4-0.1-0.5l0.2-0.3l1.8,1.2L32.7,96l-0.1,0c-0.1-0.1-0.3-0.1-0.4-0.1c-0.1,0.1-0.2,0.2-0.3,0.3
	c-0.1,0.1-0.1,0.2-0.2,0.3c-0.1,0.1-0.2,0.5-0.5,1.1l-2.6,5.6l3.8-4.1c0.5-0.5,0.8-0.8,0.9-1c0.1-0.1,0.2-0.3,0.3-0.5
	c0.1-0.1,0.2-0.3,0.2-0.4c0-0.1,0.1-0.2,0-0.3c0-0.1-0.1-0.3-0.2-0.3l0.2-0.3L35.1,97.1"/>
<path class="st8" d="M37.1,98.7l-2.3,3.7l0.1,0c0.2,0.1,0.8,0.8,1.3,0.3c0.3-0.3,0.2-0.2,0.6-0.9l0.3,0.1l-2,3.4l-0.3-0.1
	c0.3-0.5,0.3-0.3,0.4-0.7s0.2-0.5,0.1-0.7s-0.8-0.6-0.9-0.7l-1.6,2.7c-0.2,0.3-0.4,0.6-0.5,1c0,0.1-0.1,0.2-0.1,0.3
	c0,0.1,0.1,0.2,0.2,0.3l0.2,0.1c0.4,0.2,0.9,0.2,1.2-0.1c0.5-0.2,0.9-0.6,1.2-1.1l0.3,0.3l-1.7,2.2l-3.3-1.9l0.2-0.3l0.1,0.1
	c0.1,0.1,0.2,0.1,0.4,0c0.1-0.1,0.2-0.2,0.3-0.3c0.2-0.3,0.4-0.6,0.6-0.9l3.7-6.2c0.3-0.4,0.4-0.7,0.5-0.8c0.1-0.1,0.1-0.3,0.1-0.4
	c0-0.1-0.1-0.3-0.2-0.4l-0.1-0.1l0.2-0.3l3.2,1.9l-1.2,2.3l-0.3-0.1c0.2-0.3,0.3-0.7,0.3-1c0.1-0.3,0.1-0.6,0-0.9
	c-0.1-0.2-0.3-0.4-0.5-0.5L37.1,98.7"/>
<path class="st8" d="M40.8,100.7l-2.3,4.3l0.2,0.1c0.2,0.1,0.5,0.1,0.7,0.1c0.3-0.1,0.5-0.3,0.7-0.5c0.3-0.4,0.6-0.8,0.8-1.2
	c0.3-0.5,0.5-1.1,0.7-1.7c0.1-0.3-0.1-0.7-0.4-0.8L40.8,100.7 M38.3,105.4l-1.4,2.7c-0.2,0.3-0.3,0.7-0.5,1c0,0.1-0.1,0.3,0,0.4
	c0,0.1,0.1,0.2,0.3,0.3l-0.1,0.3l-2-0.9l0.1-0.3c0.1,0.1,0.3,0.1,0.4,0c0.1-0.1,0.2-0.2,0.3-0.3c0.2-0.3,0.4-0.6,0.6-1l3.3-6.3
	c0.2-0.3,0.3-0.7,0.5-1c0-0.1,0.1-0.3,0-0.4c0-0.1-0.1-0.2-0.3-0.3l0.1-0.3l1.8,0.8c0.4,0.1,0.7,0.4,0.9,0.7
	c0.1,0.4,0.2,0.8,0.1,1.1c-0.1,0.6-0.3,1.1-0.6,1.6c-0.3,0.6-0.7,1.2-1.3,1.7c-0.3,0.2-0.6,0.4-0.9,0.4l-0.8,3.7
	c-0.1,0.3-0.1,0.6-0.2,0.9c0,0.1,0,0.3,0.1,0.4l-0.1,0.3l-1.2-0.5l1.1-5L38.3,105.4z"/>
<path class="st8" d="M46.2,102l-1.2,3.5l-0.1,0c0.2-0.7,0.3-1.5,0.3-2.2c-0.1-0.6-0.2-0.9-0.5-1c-0.3-0.1-0.5,0-0.7,0.3
	c-0.2,0.3-0.4,0.6-0.5,0.9c-0.1,0.2-0.1,0.4-0.2,0.6c0,0.3,0,0.5,0,0.8c0.1,0.4,0.2,0.7,0.4,1.1c0.3,0.6,0.4,1.3,0.4,2
	c0,0.7-0.2,1.3-0.4,1.9c-0.3,0.8-0.7,1.5-1.2,2.1c-0.5,0.5-1,0.7-1.4,0.6c-0.1,0-0.3-0.1-0.4-0.2c-0.1-0.2-0.2-0.3-0.3-0.5
	c-0.1-0.1-0.1-0.2-0.2-0.2s-0.1,0-0.2,0.1c-0.1,0.1-0.2,0.3-0.3,0.4l-0.1,0l1.4-3.9l0.1,0c-0.3,0.9-0.4,1.8-0.4,2.7
	c0.1,0.7,0.2,1,0.6,1.1c0.3,0.1,0.6-0.1,0.7-0.3c0.3-0.3,0.5-0.6,0.6-1c0.1-0.2,0.1-0.5,0.2-0.7c0-0.2,0-0.5,0-0.7
	c-0.1-0.3-0.2-0.7-0.3-1c-0.2-0.5-0.3-1-0.4-1.4c-0.1-0.4-0.1-0.8,0-1.2c0.1-0.5,0.2-0.9,0.3-1.4c0.2-0.7,0.6-1.4,1.1-2
	c0.5-0.5,0.9-0.7,1.3-0.6c0.1,0,0.3,0.1,0.4,0.2c0.1,0.1,0.2,0.3,0.2,0.5c0.1,0.2,0.2,0.3,0.2,0.3s0.1,0,0.2-0.1
	c0.1-0.2,0.2-0.4,0.3-0.6L46.2,102"/>
<path class="st8" d="M53.3,104.2l-0.9,2.8l-0.1,0c0.1-0.5,0.2-1,0.2-1.5c0-0.3,0-0.5-0.1-0.8c-0.1-0.1-0.2-0.2-0.4-0.3l-0.3-0.1
	l-2.5,8c-0.1,0.3-0.2,0.7-0.3,1c0,0.1,0,0.3,0,0.4c0,0.1,0.1,0.2,0.3,0.2l0.1,0l-0.1,0.3l-2.3-0.6l0.1-0.3l0.1,0
	c0.1,0,0.3,0,0.4-0.1c0.1-0.1,0.2-0.2,0.2-0.3c0.1-0.3,0.2-0.6,0.3-1l2.4-8l-0.3-0.1c-0.3-0.1-0.6,0-0.8,0.3
	c-0.4,0.5-0.7,1.1-0.9,1.7l-0.1,0l0.9-2.8L53.3,104.2"/>
<path class="st8" d="M58.5,105.1l-0.1,0.3c-0.2,0-0.3,0.1-0.4,0.3c-0.3,0.6-0.6,1.1-0.9,1.8l-1.7,3.8l-0.5,2.6
	c-0.1,0.3-0.1,0.7-0.1,1.1c0,0.1,0,0.3,0.1,0.4c0,0.1,0.2,0.2,0.3,0.2l0.3,0l-0.1,0.3l-2.6-0.4l0.1-0.3l0.2,0c0.1,0,0.3,0,0.4-0.1
	c0.1-0.1,0.2-0.2,0.2-0.4c0.1-0.3,0.2-0.7,0.2-1l0.4-2.2l-0.3-4.8c0-0.6-0.1-1.1-0.2-1.7c0-0.2-0.2-0.3-0.3-0.3l0.1-0.3l2.2,0.3
	l-0.1,0.3l-0.1,0c-0.1,0-0.2,0-0.3,0.1c-0.1,0.1-0.1,0.2-0.1,0.3c0,0.5,0,1,0,1.5l0.2,3.7l1.4-3.2c0.2-0.5,0.4-1,0.6-1.5
	c0-0.1,0-0.3,0-0.4c-0.1-0.2-0.2-0.3-0.4-0.3l0.1-0.3L58.5,105.1"/>
<path class="st8" d="M63.4,106.4c-0.4,0-0.8,0.4-1.1,1.4c-0.3,1.1-0.6,2.3-0.7,3.5c-0.2,1.4-0.2,2.7-0.1,4.1c0.1,0.6,0.3,1,0.7,1
	c0.3,0,0.5-0.1,0.6-0.3c0.3-0.5,0.5-1,0.7-1.6c0.2-0.9,0.4-1.9,0.5-2.9c0.1-1.1,0.2-2.1,0.2-3.2c0-0.5-0.1-1-0.2-1.5
	C63.8,106.6,63.6,106.4,63.4,106.4 M63.4,105.9c0.7,0,1.3,0.6,1.6,1.7c0.3,1.3,0.4,2.7,0.2,4.1c-0.1,1.2-0.4,2.4-0.9,3.5
	c-0.6,1.3-1.3,1.9-2.2,1.9s-1.4-0.8-1.7-2.2c-0.2-1.2-0.3-2.5-0.1-3.7c0.1-1.4,0.5-2.7,1.2-3.9C62.1,106.2,62.8,105.7,63.4,105.9
	L63.4,105.9z"/>
<path class="st8" d="M67,106.9l-0.1,4.4h0.1c0.2,0,0.4-0.1,0.5-0.2c0.2-0.2,0.3-0.5,0.3-0.7c0.1-0.5,0.2-0.9,0.2-1.4h0.1l-0.1,5.4
	H68c0-0.7-0.1-1.4-0.3-2c-0.2-0.3-0.4-0.5-0.6-0.5h-0.1l-0.1,3.3c0,0.3,0,0.7,0,1c0,0.1,0.1,0.3,0.1,0.4c0.1,0.1,0.2,0.2,0.3,0.2
	h0.2v0.3l-2.3,0v-0.3h0.1c0.1,0,0.2-0.1,0.3-0.2c0.1-0.1,0.1-0.2,0.1-0.4c0-0.3,0.1-0.7,0.1-1l0.1-7.1c0-0.3,0-0.7,0-1
	c0-0.1-0.1-0.3-0.1-0.4c-0.1-0.1-0.2-0.2-0.3-0.2h-0.2l0-0.3l3.8,0.1l-0.1,3.1h-0.1c0-0.5-0.1-1.1-0.2-1.6c-0.1-0.3-0.3-0.6-0.5-0.8
	c-0.2-0.1-0.5-0.1-0.7-0.1L67,106.9"/>
<path class="st8" d="M79,105.5l0.7,3.8l-0.1,0c-0.2-0.8-0.5-1.5-1-2.2c-0.4-0.5-0.7-0.7-1.1-0.6c-0.3,0.1-0.5,0.3-0.7,0.7
	c-0.2,0.5-0.3,1.1-0.2,1.6c0,0.9,0.1,1.8,0.3,2.7c0.2,0.9,0.4,1.8,0.7,2.6c0.2,0.6,0.5,1.2,0.8,1.7c0.2,0.3,0.6,0.5,1,0.5
	c0.3-0.1,0.6-0.3,0.7-0.6c0.2-0.5,0.4-1.1,0.5-1.7l0.2,0.9c-0.1,0.5-0.3,1.1-0.5,1.5c-0.2,0.3-0.5,0.5-0.9,0.6
	c-0.5,0.1-1.1-0.1-1.4-0.5c-0.5-0.5-1-1.1-1.3-1.8c-0.8-1.8-1.1-3.8-1.1-5.7c0-0.8,0.2-1.6,0.5-2.3c0.2-0.5,0.6-0.9,1.1-1
	c0.4,0,0.8,0.1,1.1,0.3c0.1,0.1,0.3,0.2,0.4,0.2c0.1,0,0.1-0.1,0.2-0.2c0-0.2,0-0.4,0-0.6L79,105.5"/>
<path class="st8" d="M83.9,115.5l0.1,0.3l-2.2,0.5l-0.1-0.3l0.1,0c0.1,0,0.2-0.1,0.3-0.2c0-0.1,0.1-0.3,0.1-0.4c0-0.3-0.1-0.7-0.2-1
	l-1.4-7c-0.1-0.3-0.1-0.7-0.2-1c0-0.1-0.1-0.2-0.2-0.3c-0.1-0.1-0.2-0.1-0.3-0.1l-0.1,0l-0.1-0.3l2.2-0.5l0.1,0.3l-0.1,0
	c-0.1,0-0.2,0.1-0.3,0.2c0,0.1-0.1,0.3-0.1,0.4c0,0.3,0.1,0.7,0.2,1l1.4,7c0.1,0.3,0.1,0.7,0.2,1c0,0.1,0.1,0.2,0.2,0.3
	c0.1,0.1,0.2,0.1,0.3,0.1L83.9,115.5"/>
<path class="st8" d="M111.9,92.4l4.9,7c0.2,0.2,0.3,0.5,0.5,0.7c0.1,0.1,0.1,0.1,0.2,0.1c0.1,0,0.2,0,0.3-0.1
	c0.3-0.2,0.4-0.7,0.2-1.3c-0.4-1.2-1.1-2.4-1.8-3.4c-0.6-0.9-1.4-1.8-2.2-2.6c-0.3-0.4-0.8-0.6-1.3-0.7
	C112.4,92.1,112.1,92.2,111.9,92.4 M116.2,102l-0.2-0.2l0.1-0.1c0.1-0.1,0.2-0.2,0.2-0.3c0-0.1,0-0.3-0.1-0.4
	c-0.2-0.3-0.4-0.6-0.6-0.9l-4.1-5.9c-0.2-0.3-0.4-0.6-0.6-0.8c-0.1-0.1-0.2-0.2-0.3-0.2c-0.1,0-0.3,0-0.4,0.1l-0.1,0.1L110,93
	l1.8-1.3c0.4-0.3,1-0.5,1.5-0.4c0.7,0.2,1.4,0.5,2,1c0.8,0.7,1.4,1.4,2,2.3c0.4,0.6,0.8,1.2,1.1,1.8c0.2,0.5,0.4,1,0.6,1.6
	c0.1,0.4,0.1,0.8,0.1,1.2c-0.1,0.4-0.2,0.7-0.4,1c-0.1,0.2-0.3,0.4-0.5,0.5L116.2,102z"/>
<path class="st8" d="M127.9,57.7l3.7-1l0.9,3.8l-0.3,0.1l0-0.1c0-0.1-0.1-0.2-0.2-0.3c-0.1,0-0.3,0-0.4,0c-0.3,0.1-0.7,0.2-1,0.3
	l-6.8,2.1c-0.3,0.1-0.7,0.2-1,0.3c-0.1,0.1-0.2,0.1-0.3,0.2c-0.1,0.1-0.1,0.2-0.1,0.3l0,0.1l-0.3,0.1l-0.5-2.3l0.3-0.1l0,0.2
	c0,0.1,0.1,0.2,0.2,0.3c0.1,0,0.3,0,0.4,0c0.3-0.1,0.7-0.2,1-0.3l6.6-2c0.3-0.1,0.7-0.2,1-0.3c0.1-0.1,0.2-0.1,0.3-0.2
	c0-0.1,0-0.3,0-0.4l-0.1-0.4c0-0.2-0.2-0.4-0.4-0.5c-0.3-0.1-0.7-0.1-1-0.1c-0.6,0-1.3,0.1-1.9,0.3L127.9,57.7"/>
<path class="st8" d="M18.9,47.7l-2.8-1.9c-0.3-0.2-0.6-0.4-0.9-0.6c-0.1-0.1-0.3-0.1-0.4-0.1c-0.1,0-0.3,0.1-0.3,0.2l-0.1,0.1
	l-0.2-0.2l1.5-2.2l0.2,0.2l-0.1,0.1c-0.1,0.1-0.1,0.3-0.1,0.4c0,0.1,0.1,0.3,0.2,0.3c0.3,0.2,0.5,0.4,0.8,0.6l5.9,4
	c0.3,0.2,0.6,0.4,0.9,0.6c0.1,0.1,0.3,0.1,0.4,0.1c0.1,0,0.3-0.1,0.3-0.2l0.1-0.1l0.2,0.2l-1.5,2.2l-0.2-0.2l0.1-0.1
	c0.1-0.1,0.1-0.3,0.1-0.4c0-0.1-0.1-0.3-0.2-0.3c-0.3-0.2-0.5-0.4-0.8-0.6l-2.5-1.7l-1,1.5l2.5,1.7c0.3,0.2,0.6,0.4,0.9,0.6
	c0.1,0.1,0.3,0.1,0.4,0.1c0.1,0,0.3-0.1,0.3-0.2l0.1-0.1l0.2,0.2L21.4,54l-0.2-0.2l0.1-0.1c0.1-0.1,0.1-0.3,0.1-0.4
	c0-0.1-0.1-0.3-0.2-0.3c-0.3-0.2-0.5-0.4-0.8-0.6l-5.9-4c-0.3-0.2-0.6-0.4-0.9-0.6c-0.1-0.1-0.3-0.1-0.4-0.1c-0.1,0-0.3,0.1-0.3,0.2
	L12.7,48l-0.2-0.2l1.5-2.2l0.2,0.2l-0.1,0.1C14,46,14,46.2,14,46.3c0,0.1,0.1,0.3,0.2,0.3c0.3,0.2,0.5,0.4,0.8,0.6l2.8,1.9
	L18.9,47.7"/>
<path class="st8" d="M21.2,54.1l-1.5,2.2l-0.3-0.2l0.1-0.1c0.1-0.1,0.1-0.3,0.1-0.4c0-0.1-0.1-0.2-0.2-0.3c-0.3-0.3-0.6-0.5-1-0.7
	l-4.5-3c-0.5-0.4-1.1-0.7-1.7-1c-0.3-0.1-0.6-0.2-0.9-0.2c-0.2,0-0.5,0.1-0.6,0.3c-0.2,0.2-0.2,0.6-0.1,0.8c0.2,0.4,0.4,0.7,0.7,1
	c0.6,0.6,1.3,1.1,2,1.5l3.8,2.5c0.3,0.2,0.6,0.4,0.9,0.5c0.1,0.1,0.3,0.1,0.5,0.1c0.2,0,0.3-0.1,0.4-0.3l0.3,0.2l-1,1.5L18,58.3
	l0.1-0.1c0.1-0.1,0.1-0.3,0-0.4c-0.1-0.2-0.2-0.4-0.4-0.5c-0.2-0.2-0.5-0.4-0.8-0.6l-3.5-2.3c-0.8-0.5-1.6-1.1-2.3-1.7
	c-0.4-0.4-0.8-0.8-1-1.4c-0.2-0.5-0.2-1,0.1-1.5c0.2-0.3,0.5-0.6,0.9-0.6c0.5-0.1,1,0,1.5,0.2c0.7,0.3,1.3,0.6,1.9,1.1l4.5,3
	c0.3,0.2,0.7,0.4,1,0.6c0.1,0.1,0.3,0.1,0.4,0.1c0.1,0,0.2-0.1,0.4-0.3L21.2,54.1"/>
<path class="st8" d="M11.9,57.2l3.3,0.7L12.6,56L11.9,57.2 M11.2,57l0.7-1.6l-1.3-1c-0.3-0.2-0.4-0.4-0.6-0.5
	c-0.2-0.1-0.4-0.2-0.7-0.1c-0.1,0-0.2,0.1-0.4,0.4l-0.3-0.1l0.6-1.5l0.3,0.1c0,0.2,0.1,0.5,0.3,0.6c0.3,0.4,0.7,0.8,1.2,1.1l7.3,5.3
	L18.3,60l-8.7-2.4c-0.5-0.2-1.1-0.3-1.6-0.3c-0.2,0-0.4,0.1-0.6,0.2l-0.3-0.1l1.1-2.2l0.3,0.1l0,0.1c-0.1,0.1-0.1,0.3,0,0.4
	C8.5,56,8.6,56,8.7,56.1c0.1,0,0.2,0.1,0.3,0.1c0.2,0,0.4,0.1,0.6,0.2L11.2,57z"/>
<path class="st8" d="M17,64.3l-9.7-4.5l-0.2,0.9c-0.1,0.3-0.1,0.6,0,0.9c0.2,0.4,0.5,0.7,0.9,0.9c0.6,0.3,1.3,0.6,2,0.8l0,0.1
	l-3.9-0.9l0.7-4.1l9.7,4.5l0.1-0.7c0-0.2,0.1-0.3,0-0.5c-0.1-0.2-0.2-0.4-0.3-0.5c-0.2-0.2-0.5-0.4-0.8-0.5
	c-0.4-0.2-0.8-0.3-1.2-0.4l0-0.1l3.1,0.7L17,64.3"/>
<path class="st8" d="M10.8,65.9l-3.4-0.4c-0.3-0.1-0.7-0.1-1.1-0.1c-0.1,0-0.3,0-0.4,0.1c-0.1,0.1-0.2,0.2-0.2,0.3l0,0.2l-0.3,0
	l0.3-2.5l0.3,0l0,0.2c0,0.1,0,0.3,0.1,0.4c0.1,0.1,0.2,0.2,0.4,0.2c0.3,0.1,0.7,0.1,1,0.2l7.2,0.9c0.3,0.1,0.7,0.1,1.1,0.1
	c0.1,0,0.3,0,0.4-0.1c0.1-0.1,0.2-0.2,0.2-0.3l0-0.2l0.3,0l-0.3,2.5l-0.3,0l0-0.2c0-0.1,0-0.3-0.1-0.4c-0.1-0.1-0.2-0.2-0.4-0.2
	c-0.3-0.1-0.7-0.1-1-0.2L11.5,66l-0.2,1.7l3.1,0.4c0.3,0.1,0.7,0.1,1.1,0.1c0.1,0,0.3,0,0.4-0.1c0.1-0.1,0.2-0.2,0.2-0.3l0-0.2
	l0.3,0l-0.3,2.5l-0.3,0l0-0.2c0-0.1,0-0.3-0.1-0.4c-0.1-0.1-0.2-0.2-0.4-0.2c-0.3-0.1-0.7-0.1-1-0.2l-7.2-0.9
	c-0.3-0.1-0.7-0.1-1-0.1c-0.1,0-0.3,0-0.4,0.1c-0.1,0.1-0.2,0.2-0.2,0.3l0,0.2l-0.3,0l0.3-2.5l0.3,0l0,0.2c0,0.1,0,0.3,0.1,0.4
	C6,66.9,6.1,67,6.3,67c0.3,0.1,0.7,0.1,1,0.2l3.4,0.4L10.8,65.9"/>
<path class="st8" d="M16,72.1c0-0.4-0.6-0.7-1.6-0.9c-1.2-0.1-2.5-0.2-3.7-0.1c-1.4,0-2.8,0.2-4.1,0.6c-0.6,0.2-0.9,0.5-0.9,0.8
	c0,0.3,0.2,0.5,0.5,0.6c0.5,0.2,1.1,0.3,1.7,0.4c1,0.1,2,0.1,3,0c1.1,0,2.2-0.2,3.3-0.3c0.5-0.1,1-0.3,1.5-0.5
	C15.8,72.5,16,72.3,16,72.1 M16.5,72c0.1,0.7-0.3,1.3-1.4,1.8c-1.3,0.6-2.6,0.9-4,0.9c-1.3,0.1-2.5,0-3.7-0.3
	c-1.5-0.4-2.2-1-2.3-1.8s0.5-1.5,1.9-2c1.2-0.4,2.5-0.7,3.7-0.7c1.4-0.1,2.8,0,4.2,0.5C15.9,70.8,16.5,71.4,16.5,72L16.5,72z"/>
<path class="st8" d="M16.8,75.4l-6,3.9l4.6-1c0.4-0.1,0.9-0.2,1.3-0.4c0.3-0.1,0.4-0.4,0.3-0.7l0.3-0.1l0.4,1.6l-0.3,0.1
	c-0.1-0.2-0.2-0.3-0.3-0.4c-0.2-0.1-0.3-0.1-0.5-0.1c-0.4,0-0.7,0.1-1.1,0.2l-8.8,2l0-0.1l8.1-5.3l-6.8,1.5
	c-0.4,0.1-0.8,0.2-1.2,0.5c-0.2,0.1-0.2,0.3-0.2,0.5l0,0.1l-0.3,0.1L5.8,76l0.3-0.1c0,0.2,0.2,0.4,0.5,0.5c0.4,0,0.8,0,1.2-0.1
	l7.5-1.7l0.3-0.2c0.2-0.1,0.4-0.2,0.5-0.4c0.1-0.1,0.1-0.2,0.1-0.4l0.3-0.1L16.8,75.4"/>
<path class="st8" d="M19.1,81.8l-3.5,1.6l0-0.1c0.7-0.4,1.4-1,2-1.6c0.4-0.5,0.5-0.9,0.4-1.2c-0.1-0.3-0.4-0.5-0.9-0.5
	c-0.7,0-1.3,0.1-1.9,0.3c-0.8,0.3-1.6,0.6-2.4,0.9c-0.8,0.4-1.7,0.8-2.5,1.3c-0.5,0.3-1,0.7-1.4,1.2c-0.2,0.3-0.3,0.6-0.2,1
	c0,0.1,0.1,0.2,0.2,0.3C8.9,85,9,85.1,9.1,85.1l3.5-1.3c0.3-0.1,0.5-0.2,0.7-0.4c0.1-0.1,0.2-0.2,0.3-0.3c0.1-0.1,0.1-0.2,0-0.3
	l0-0.1l0.3-0.1l0.7,1.8l-0.3,0.1c-0.1-0.1-0.2-0.2-0.3-0.3c-0.1,0-0.3,0-0.4,0c-0.2,0.1-0.5,0.2-0.7,0.3l-3.4,1.5
	c-0.4-0.1-0.7-0.3-1-0.5c-0.3-0.2-0.4-0.5-0.6-0.8c-0.2-0.4-0.2-0.8,0-1.2c0.2-0.4,0.4-0.8,0.7-1.2c0.4-0.4,0.8-0.8,1.2-1.1
	c0.7-0.5,1.4-0.9,2.2-1.2c1.3-0.6,2.7-1,4.1-1.1c1.2,0,1.9,0.3,2.2,1c0.1,0.2,0.1,0.4,0.1,0.6c0,0.2-0.1,0.4-0.2,0.6
	c-0.1,0.2-0.1,0.3-0.1,0.5c0,0.1,0.1,0.1,0.2,0.1c0.2,0,0.4-0.1,0.6-0.1L19.1,81.8"/>
<path class="st8" d="M20.9,84.3l1.6,2.1l-0.2,0.2l-0.1-0.1c-0.1-0.1-0.2-0.2-0.4-0.3c-0.1,0-0.3,0-0.4,0.1c-0.3,0.2-0.7,0.4-1,0.7
	l-4.3,3.2c-0.5,0.4-1,0.8-1.5,1.3c-0.2,0.2-0.3,0.5-0.4,0.8c-0.1,0.2,0,0.5,0.1,0.7c0.2,0.2,0.5,0.4,0.8,0.3c0.4,0,0.8-0.1,1.2-0.3
	c0.7-0.4,1.4-0.8,2.1-1.4l3.6-2.7c0.3-0.2,0.6-0.4,0.8-0.7c0.1-0.1,0.2-0.3,0.2-0.4c0-0.2,0-0.4-0.1-0.5l0.2-0.2l1.1,1.4l-0.2,0.2
	l-0.1-0.1c-0.1-0.1-0.2-0.2-0.4-0.2c-0.2,0-0.4,0.1-0.6,0.2c-0.3,0.2-0.5,0.3-0.8,0.5l-3.4,2.5c-0.7,0.6-1.5,1.1-2.3,1.6
	c-0.5,0.3-1.1,0.4-1.6,0.5c-0.5,0.1-1-0.2-1.3-0.6c-0.2-0.3-0.4-0.7-0.3-1.1c0.1-0.5,0.3-1,0.7-1.4c0.5-0.6,1-1.1,1.6-1.5l4.3-3.2
	c0.3-0.2,0.6-0.5,0.9-0.7c0.1-0.1,0.2-0.2,0.2-0.4c0-0.2,0-0.3-0.2-0.4L20.9,84.3"/>
<path class="st8" d="M26,90l-3.3,6.4l3.4-3.2c0.3-0.3,0.6-0.6,0.9-1c0.2-0.2,0.1-0.5-0.1-0.7l0.2-0.2l1.1,1.2l-0.2,0.2
	c-0.1-0.1-0.3-0.2-0.5-0.2c-0.2,0-0.3,0.1-0.5,0.2c-0.3,0.2-0.6,0.4-0.8,0.7l-6.7,6.1l-0.1-0.1l4.4-8.7l-5.1,4.7
	c-0.3,0.3-0.6,0.6-0.8,1c-0.1,0.2-0.1,0.4,0.1,0.6l0.1,0.1l-0.2,0.2l-1.2-1.3l0.2-0.2c0.2,0.2,0.4,0.3,0.7,0.2
	c0.4-0.2,0.7-0.4,1-0.7l5.7-5.2l0.1-0.3c0.1-0.2,0.2-0.4,0.2-0.6c0-0.1,0-0.3-0.1-0.4l0.2-0.2L26,90"/>
<path class="st8" d="M45.4,113l-0.1,0.3l-2.2-0.7l0.1-0.3l0.1,0c0.1,0,0.3,0,0.3-0.1c0.1-0.1,0.2-0.2,0.2-0.3
	c0.1-0.3,0.3-0.6,0.4-0.9l2.3-6.8c0.1-0.3,0.2-0.7,0.3-1c0-0.1,0-0.3,0-0.4c0-0.1-0.1-0.2-0.2-0.2l-0.1,0l0.1-0.3l2.2,0.7l-0.1,0.3
	l-0.1,0c-0.1,0-0.3,0-0.3,0.1c-0.1,0.1-0.2,0.2-0.2,0.3c-0.1,0.3-0.3,0.6-0.4,0.9l-2.3,6.8c-0.1,0.3-0.2,0.7-0.3,1
	c0,0.1,0,0.3,0,0.4c0,0.1,0.1,0.2,0.2,0.2L45.4,113"/>
<path class="st8" d="M74.1,105.9l0.7,3.6l-0.1,0c-0.2-0.7-0.5-1.5-0.9-2.1c-0.4-0.5-0.7-0.7-1-0.7c-0.3,0.1-0.5,0.3-0.5,0.6
	c-0.1,0.3-0.1,0.7,0,1.1c0,0.2,0.1,0.4,0.2,0.6c0.1,0.2,0.3,0.5,0.5,0.7c0.3,0.3,0.6,0.5,0.9,0.8c0.6,0.4,1.1,0.9,1.5,1.5
	c0.3,0.6,0.5,1.2,0.6,1.8c0.2,0.8,0.2,1.6,0,2.4c-0.2,0.7-0.5,1.1-1,1.2c-0.1,0-0.3,0-0.4,0c-0.2-0.1-0.4-0.2-0.6-0.3
	c-0.1-0.1-0.2-0.1-0.3-0.1c-0.1,0-0.1,0.1-0.2,0.2c-0.1,0.2-0.1,0.3-0.1,0.5l-0.1,0l-0.7-4.1l0.1,0c0.2,0.9,0.6,1.7,1.1,2.5
	c0.4,0.5,0.8,0.8,1.1,0.7c0.3-0.1,0.5-0.3,0.5-0.6c0.1-0.4,0.1-0.8,0-1.2c0-0.3-0.1-0.5-0.2-0.7c-0.1-0.2-0.2-0.4-0.4-0.6
	c-0.2-0.3-0.5-0.5-0.8-0.7c-0.4-0.3-0.8-0.7-1.2-1.1c-0.3-0.3-0.5-0.7-0.6-1.1c-0.2-0.4-0.3-0.9-0.4-1.4c-0.2-0.8-0.2-1.5,0-2.3
	c0.2-0.7,0.5-1,0.9-1.1c0.2,0,0.3,0,0.5,0c0.2,0.1,0.3,0.2,0.5,0.3c0.2,0.1,0.3,0.2,0.4,0.2s0.1-0.1,0.1-0.2c0-0.2,0-0.4,0-0.6
	L74.1,105.9"/>
<path class="st8" d="M84.3,105.2l0.8,4.2l0.1,0c0.2-0.1,1.1,0,1.2-0.7c0-0.5,0-0.3-0.1-1.1l0.3-0.1l0.8,3.9l-0.3,0.1
	c-0.1-0.6,0-0.4-0.2-0.8s-0.2-0.5-0.3-0.6s-1,0.1-1.2,0.1l0.6,3c0.1,0.4,0.2,0.7,0.3,1.1c0,0.1,0.1,0.2,0.2,0.3
	c0.1,0.1,0.2,0.1,0.3,0.1l0.3-0.1c0.4-0.1,0.8-0.5,0.8-0.9c0.2-0.5,0.2-1.1,0.1-1.6l0.4,0l0.2,2.8l-3.8,0.8l-0.1-0.3l0.1,0
	c0.1,0,0.2-0.1,0.3-0.2c0-0.1,0.1-0.3,0-0.4c0-0.3-0.1-0.7-0.2-1l-1.5-7.1c-0.1-0.5-0.2-0.8-0.2-0.9c0-0.1-0.1-0.3-0.2-0.4
	c-0.1-0.1-0.2-0.2-0.4-0.1l-0.1,0l-0.1-0.3l3.6-0.8l0.7,2.5l-0.3,0.1c-0.1-0.4-0.2-0.7-0.5-1c-0.1-0.3-0.4-0.5-0.6-0.6
	c-0.2-0.1-0.5-0.1-0.7,0L84.3,105.2"/>
<path class="st8" d="M88.3,103.7l4.4,5.8l-1.4-4.5c-0.1-0.4-0.3-0.9-0.5-1.2c-0.2-0.2-0.5-0.4-0.7-0.3l-0.1-0.3l1.7-0.5l0.1,0.3
	c-0.2,0.1-0.3,0.2-0.4,0.3c0,0.2-0.1,0.3,0,0.5c0.1,0.4,0.1,0.7,0.3,1.1l2.6,8.7l-0.1,0l-6-7.7l2,6.6c0.1,0.4,0.3,0.8,0.6,1.2
	c0.1,0.2,0.3,0.2,0.5,0.2l0.1,0l0.1,0.3l-1.8,0.5l-0.1-0.3c0.3-0.1,0.4-0.3,0.5-0.5c0-0.4-0.1-0.8-0.2-1.2l-2.2-7.4l-0.2-0.2
	c-0.1-0.2-0.3-0.3-0.4-0.5c-0.1-0.1-0.3-0.1-0.4,0l-0.1-0.3L88.3,103.7"/>
<path class="st8" d="M95.6,101.3l1.2,3.6l-0.1,0c-0.3-0.7-0.7-1.4-1.2-2c-0.4-0.4-0.8-0.6-1.1-0.5c-0.3,0.1-0.5,0.4-0.6,0.8
	c-0.1,0.5-0.1,1.1,0,1.6c0.1,0.9,0.3,1.8,0.6,2.7c0.3,0.9,0.6,1.7,1,2.5c0.2,0.6,0.6,1.1,1,1.6c0.2,0.3,0.6,0.4,1,0.3
	c0.3-0.1,0.5-0.4,0.6-0.7c0.2-0.6,0.3-1.1,0.2-1.7l0.3,0.9c0,0.5-0.1,1.1-0.3,1.6c-0.2,0.3-0.4,0.6-0.8,0.7c-0.5,0.1-1.1,0-1.5-0.3
	c-0.6-0.4-1.1-1-1.5-1.7c-1-1.7-1.6-3.6-1.8-5.6c-0.1-0.8,0-1.6,0.2-2.4c0.1-0.5,0.5-0.9,1-1.1c0.4-0.1,0.8,0,1.1,0.2
	c0.1,0.1,0.3,0.1,0.5,0.2c0.1,0,0.1-0.1,0.1-0.2c0-0.2,0-0.4-0.1-0.6L95.6,101.3"/>
<path class="st8" d="M97.7,101.3l1.6,4l0.1,0c0.2-0.1,1.1-0.2,1-0.9c0-0.5-0.1-0.3-0.3-1l0.2-0.2l1.5,3.7l-0.3,0.2
	c-0.2-0.6-0.1-0.4-0.3-0.8s-0.3-0.4-0.4-0.5s-0.9,0.2-1.1,0.3l1.2,2.9c0.1,0.3,0.3,0.7,0.4,1c0.1,0.1,0.1,0.2,0.2,0.3
	c0.1,0.1,0.2,0.1,0.3,0l0.2-0.1c0.4-0.2,0.7-0.6,0.7-1.1c0.1-0.5,0-1.1-0.1-1.6l0.4,0l0.7,2.7l-3.6,1.5l-0.1-0.3l0.1-0.1
	c0.1,0,0.2-0.2,0.2-0.3c0-0.1,0-0.3,0-0.4c-0.1-0.3-0.2-0.6-0.4-1l-2.7-6.7c-0.2-0.5-0.3-0.7-0.4-0.8c-0.1-0.1-0.2-0.3-0.3-0.4
	c-0.1-0.1-0.3-0.1-0.4-0.1l-0.1,0.1l-0.1-0.3l3.4-1.4l1.1,2.3l-0.3,0.2c-0.1-0.3-0.3-0.6-0.6-0.9c-0.2-0.2-0.4-0.4-0.7-0.5
	c-0.2,0-0.5,0-0.7,0.1L97.7,101.3"/>
<path class="st8" d="M107.4,103.1l-2.4-2.5l1.2,3.1L107.4,103.1 M107.9,103.6l-1.5,0.9l0.5,1.5c0,0.2,0.1,0.5,0.2,0.7
	c0.1,0.2,0.3,0.4,0.5,0.5c0.2,0,0.3,0,0.5-0.1l0.2,0.3l-1.4,0.9l-0.2-0.3c0.1-0.2,0.2-0.4,0.1-0.7c0-0.5-0.1-1.1-0.3-1.6l-2.9-8.5
	l0.2-0.1l5.8,7c0.3,0.4,0.7,0.8,1.2,1.2c0.2,0.1,0.4,0.2,0.6,0.2l0.2,0.3l-2.1,1.2l-0.2-0.3l0.1-0.1c0.1-0.1,0.2-0.2,0.2-0.4
	c0-0.1,0-0.3-0.1-0.4c-0.1-0.1-0.1-0.2-0.2-0.3c-0.2-0.1-0.3-0.3-0.4-0.5L107.9,103.6z"/>
<path class="st8" d="M106.9,95.4l6,4.1l-2.7-3.8c-0.2-0.4-0.5-0.7-0.9-1c-0.2-0.2-0.5-0.2-0.8,0l-0.2-0.2l1.4-1l0.2,0.2
	c-0.1,0.1-0.2,0.3-0.2,0.4c0,0.2,0,0.3,0.1,0.5c0.2,0.3,0.4,0.6,0.6,0.9l5.2,7.4l-0.1,0.1l-8.2-5.4l4,5.7c0.2,0.4,0.5,0.7,0.9,0.9
	c0.2,0.1,0.4,0.1,0.6,0l0.1-0.1l0.2,0.2l-1.5,1l-0.2-0.2c0.2-0.1,0.3-0.4,0.3-0.6c-0.1-0.4-0.3-0.8-0.6-1.1l-4.4-6.3l-0.3-0.2
	c-0.2-0.1-0.4-0.2-0.6-0.3c-0.1,0-0.3,0-0.4,0.1l-0.2-0.2L106.9,95.4"/>
<path class="st8" d="M117.4,85.2l2.3,1.8l-0.1,0.1c-0.4-0.3-0.8-0.5-1.3-0.7c-0.2-0.1-0.5-0.2-0.8-0.1c-0.2,0-0.3,0.1-0.4,0.3
	l-0.2,0.3l6.7,5.1c0.3,0.2,0.6,0.4,0.9,0.6c0.1,0.1,0.2,0.1,0.4,0.1c0.1,0,0.2-0.1,0.3-0.2l0.1-0.1l0.2,0.2l-1.4,1.9l-0.2-0.2
	l0.1-0.1c0.1-0.1,0.1-0.2,0-0.4c0-0.1-0.1-0.3-0.2-0.3c-0.2-0.2-0.5-0.4-0.8-0.6l-6.7-5.1l-0.2,0.3c-0.2,0.2-0.2,0.6,0,0.8
	c0.3,0.5,0.8,1,1.3,1.4l-0.1,0.1l-2.3-1.8L117.4,85.2"/>
<path class="st8" d="M119,83.9l3.6,2.3l0-0.1c0.1-0.2,0.8-0.8,0.3-1.3c-0.3-0.3-0.2-0.2-0.9-0.7l0.1-0.3l3.4,2.1l-0.1,0.3
	c-0.5-0.3-0.3-0.3-0.7-0.4s-0.5-0.2-0.7-0.1s-0.6,0.7-0.7,0.9l2.6,1.6c0.3,0.2,0.6,0.4,1,0.6c0.1,0.1,0.2,0.1,0.3,0.1
	c0.1,0,0.2-0.1,0.3-0.2l0.1-0.2c0.2-0.4,0.2-0.9-0.1-1.2c-0.2-0.5-0.6-0.9-1.1-1.2l0.3-0.3l2.1,1.8l-2,3.3l-0.3-0.2l0.1-0.1
	c0.1-0.1,0.1-0.2,0-0.4c-0.1-0.1-0.2-0.2-0.3-0.3c-0.3-0.2-0.6-0.4-0.9-0.6l-6.2-3.8c-0.4-0.3-0.7-0.4-0.8-0.5
	c-0.1-0.1-0.3-0.1-0.4-0.1c-0.1,0-0.3,0-0.4,0.2l-0.1,0.1l-0.3-0.2l1.9-3.2l2.3,1.2l-0.2,0.3c-0.3-0.2-0.7-0.3-1-0.3
	c-0.3-0.1-0.6-0.1-0.9,0c-0.2,0.1-0.4,0.3-0.5,0.5L119,83.9"/>
<path class="st8" d="M121,78.4l3.7,1.1l0,0.1c-0.8-0.2-1.6-0.2-2.4-0.2c-0.6,0.1-0.9,0.3-1,0.6c-0.1,0.3,0.1,0.7,0.3,0.9
	c0.4,0.4,0.8,0.7,1.3,1c0.8,0.4,1.7,0.8,2.5,1c0.9,0.3,1.7,0.5,2.6,0.7c0.6,0.1,1.3,0.2,1.9,0.1c0.4,0,0.7-0.3,0.9-0.6
	c0.1-0.3,0-0.6-0.2-0.9c-0.4-0.5-0.8-0.9-1.3-1.2l0.9,0.3c0.4,0.3,0.8,0.7,1.1,1.2c0.2,0.3,0.2,0.7,0.1,1.1c-0.2,0.5-0.6,0.9-1.1,1
	c-0.7,0.2-1.5,0.3-2.2,0.2c-2-0.2-3.9-0.8-5.5-1.8c-0.7-0.4-1.3-0.9-1.8-1.5c-0.3-0.4-0.5-0.9-0.4-1.4c0.2-0.4,0.4-0.7,0.8-0.8
	c0.2-0.1,0.4-0.2,0.4-0.3s0-0.1-0.1-0.2c-0.2-0.1-0.4-0.2-0.5-0.3L121,78.4"/>
<path class="st8" d="M127.2,77.6l3.3,0.8c0.3,0.1,0.7,0.2,1,0.2c0.1,0,0.3,0,0.4-0.1c0.1,0,0.2-0.2,0.2-0.3l0-0.2l0.3,0.1l-0.5,2.5
	l-0.3-0.1l0-0.2c0-0.1,0-0.3-0.1-0.4c-0.1-0.1-0.2-0.2-0.4-0.2c-0.3-0.1-0.7-0.2-1-0.3l-7-1.6c-0.3-0.1-0.7-0.2-1-0.2
	c-0.1,0-0.3,0-0.4,0.1c-0.1,0.1-0.2,0.2-0.2,0.3l0,0.2l-0.3-0.1l0.5-2.5l0.3,0.1l0,0.2c0,0.1,0,0.3,0.1,0.4c0.1,0.1,0.2,0.2,0.3,0.2
	c0.3,0.1,0.7,0.2,1,0.3l3,0.7l0.4-1.7l-3-0.7c-0.3-0.1-0.7-0.2-1-0.2c-0.1,0-0.3,0-0.4,0.1c-0.1,0.1-0.2,0.2-0.2,0.3l0,0.2l-0.3-0.1
	l0.5-2.5l0.3,0.1l0,0.2c0,0.1,0,0.3,0.1,0.4c0.1,0.1,0.2,0.2,0.3,0.2c0.3,0.1,0.7,0.2,1,0.3l7,1.6c0.3,0.1,0.7,0.2,1,0.2
	c0.1,0,0.3,0,0.4-0.1c0.1,0,0.2-0.2,0.2-0.3l0-0.2l0.3,0.1l-0.5,2.5l-0.3-0.1l0-0.2c0-0.1,0-0.3-0.1-0.4c-0.1-0.1-0.2-0.2-0.3-0.2
	c-0.3-0.1-0.7-0.2-1-0.3l-3.3-0.8L127.2,77.6"/>
<path class="st8" d="M122.6,70.9l6.9-2.3l-4.7-0.2c-0.4,0-0.9,0-1.3,0.1c-0.3,0.1-0.5,0.3-0.5,0.6l-0.3,0l0.1-1.7l0.3,0
	c0,0.2,0.1,0.3,0.2,0.5c0.1,0.1,0.3,0.2,0.4,0.2c0.4,0.1,0.7,0.1,1.1,0.1l9.1,0.4l0,0.1l-9.3,3.2l6.9,0.3c0.4,0.1,0.9,0,1.3-0.2
	c0.2-0.1,0.3-0.3,0.4-0.5l0-0.1l0.3,0l-0.1,1.8l-0.3,0c0-0.3-0.1-0.5-0.3-0.6c-0.4-0.2-0.8-0.2-1.2-0.2l-7.7-0.3l-0.3,0.1
	c-0.2,0.1-0.4,0.1-0.6,0.3c-0.1,0.1-0.2,0.2-0.2,0.4l-0.3,0L122.6,70.9"/>
<path class="st8" d="M122.9,65.5c0.1,0.4,0.6,0.7,1.7,0.8c1.2,0.1,2.4,0,3.6-0.2c1.4-0.1,2.8-0.4,4.1-0.9c0.6-0.3,0.9-0.6,0.8-0.9
	c-0.1-0.3-0.2-0.5-0.5-0.5c-0.6-0.2-1.1-0.3-1.7-0.2c-1,0-2,0.1-3,0.2c-1.1,0.1-2.2,0.3-3.2,0.6c-0.5,0.1-1,0.3-1.5,0.6
	C123,65,122.8,65.3,122.9,65.5 M122.4,65.6c-0.2-0.7,0.2-1.4,1.3-2c1.2-0.7,2.6-1.1,4-1.2c1.2-0.2,2.5-0.2,3.7,0
	c1.5,0.3,2.3,0.8,2.4,1.6c0.1,0.8-0.5,1.5-1.7,2.2c-1.2,0.5-2.4,0.9-3.7,1c-1.4,0.2-2.8,0.2-4.2-0.2C123,66.8,122.4,66.3,122.4,65.6
	L122.4,65.6z"/>
<path class="st8" d="M116.9,53l3.3-2.2l0.1,0.1c-0.7,0.5-1.2,1.2-1.7,1.9c-0.3,0.6-0.4,1-0.2,1.3c0.2,0.3,0.5,0.4,1,0.3
	c0.7-0.1,1.3-0.4,1.9-0.7c0.8-0.4,1.5-0.8,2.2-1.3c0.8-0.5,1.6-1.1,2.3-1.7c0.5-0.4,0.9-0.9,1.2-1.4c0.2-0.3,0.2-0.7,0-1
	c-0.1-0.1-0.1-0.2-0.3-0.2c-0.1-0.1-0.3-0.1-0.4-0.2l-3.3,1.9c-0.2,0.1-0.5,0.3-0.7,0.5c-0.1,0.1-0.2,0.2-0.2,0.3c0,0.1,0,0.2,0,0.3
	l0.1,0.1l-0.3,0.2l-1-1.7l0.3-0.2c0.1,0.1,0.2,0.2,0.3,0.2c0.2,0,0.3,0,0.4-0.1c0.2-0.1,0.4-0.3,0.7-0.4l3.2-2.1
	c0.4,0.1,0.7,0.2,1.1,0.4c0.3,0.2,0.5,0.4,0.7,0.7c0.2,0.3,0.3,0.8,0.2,1.1c-0.1,0.4-0.3,0.9-0.5,1.3c-0.3,0.5-0.7,0.9-1,1.3
	c-0.6,0.6-1.3,1.1-2,1.6c-1.2,0.8-2.5,1.4-3.9,1.8c-1.2,0.2-2,0.1-2.4-0.6c-0.1-0.2-0.2-0.4-0.2-0.6c0-0.2,0-0.4,0.1-0.6
	c0-0.2,0.1-0.3,0.1-0.5c0-0.1-0.1-0.1-0.2-0.1C117.3,52.9,117.1,53,116.9,53L116.9,53"/>
<path class="st8" d="M113.7,48.6l0.2-0.2c0.1,0.1,0.3,0.1,0.5,0.1c0.6-0.2,1.2-0.4,1.8-0.7l3.8-1.6l2.1-1.6c0.3-0.2,0.6-0.4,0.8-0.7
	c0.1-0.1,0.2-0.2,0.2-0.3c0-0.1,0-0.2-0.1-0.3l-0.2-0.2l0.2-0.2l1.6,2.1l-0.2,0.2l-0.2-0.2c-0.1-0.1-0.2-0.2-0.3-0.2
	c-0.1,0-0.3,0.1-0.4,0.1c-0.3,0.2-0.6,0.4-0.8,0.6l-1.8,1.3l-3.1,3.7c-0.4,0.4-0.7,0.9-1,1.3c-0.1,0.1-0.1,0.3,0,0.4l-0.2,0.2
	l-1.4-1.8l0.2-0.2l0.1,0.1c0.1,0.1,0.2,0.2,0.3,0.1c0.1,0,0.2,0,0.3-0.1c0.4-0.3,0.7-0.7,1-1.1l2.4-2.8l-3.2,1.3
	c-0.5,0.2-1,0.4-1.5,0.7c-0.1,0.1-0.2,0.2-0.2,0.3c-0.1,0.2,0,0.3,0.1,0.5l-0.2,0.2L113.7,48.6"/>
<path class="st8" d="M120.6,58.1c0.2,0.4,0.8,0.5,1.8,0.2c1.2-0.3,2.3-0.7,3.4-1.3c1.3-0.5,2.5-1.2,3.6-2.1c0.5-0.4,0.7-0.8,0.5-1.1
	c-0.1-0.2-0.4-0.4-0.6-0.4c-0.6,0-1.2,0.1-1.7,0.3c-0.9,0.3-1.9,0.7-2.8,1.1c-1,0.4-2,0.9-2.9,1.5c-0.5,0.3-0.9,0.6-1.2,1
	C120.6,57.6,120.6,57.8,120.6,58.1 M120.2,58.3c-0.4-0.6-0.2-1.4,0.6-2.2c1-1,2.1-1.8,3.4-2.3c1.1-0.5,2.3-0.9,3.6-1.1
	c1.5-0.2,2.4,0.1,2.7,0.8s0,1.6-1,2.6c-0.9,0.9-2,1.5-3.2,2.1c-1.2,0.6-2.6,1-4,1.1C121.1,59.3,120.4,59,120.2,58.3L120.2,58.3z"/>
<path class="st9" d="M96.2,30.1c-0.3,0-0.5,0-0.8,0.1c-0.4,0-0.8,0-1.1,0c-0.1-0.1,0.5-0.9,0.6-1c0.2-0.2,0.8-0.8,1-1
	c0.2-0.1,0.3-0.2,0.4-0.4c0.2-0.4-0.2-1.2-0.3-1.6c-0.1-0.1-0.2-0.8-0.4-0.8l-0.3,0.1L95,25.7c-0.1,0.2-0.2,0.5-0.3,0.7
	c-0.7,1.3-1.5,2.5-2.5,3.6c-1.1,0-2.2,0-3.4-0.2c-0.4-0.1-1-0.5-1.4-0.3c-0.1,0.2,0.1,0.6,0.2,0.8l0.2,0.6c0.1,0.3,0.3,0.7,0.7,0.8
	c0.7-0.2,1.5-0.2,2.2-0.3c0,0.3-0.4,0.5-0.6,0.6c-0.6,0.3-1.3,0.5-2,0.6c-0.6,0-1.3,0-1.9-0.1c-0.2,0-0.6-0.2-0.7,0
	c-0.1,0.1,0.7,0.6,0.8,0.6c0.4,0.2,0.8,0.4,1.2,0.5c2,0.5,4-1.1,5.4-2.3c0.3-0.1,0.6-0.1,1-0.1l1.6,0c0.2,0,0.8,0.1,1,0.2l0.3-0.1
	C97.1,30.8,96.6,30.2,96.2,30.1z M114.7,35.5c-0.1-0.3-0.2-0.7-0.5-0.8c-0.7-0.2-1.6-0.5-2.3-0.7c-0.2,0-0.8,0.1-0.7-0.3
	c1.2-0.1,1.6,0.3,1.4-1.2c0-0.4-0.3-0.9-0.7-0.5c-0.1,0.2-0.7,0.3-0.9,0.4c-0.1,0-0.3,0-0.4-0.1c-0.1-0.2-0.4-0.6-0.5-0.7
	c-0.1-0.2-0.3-0.3-0.5-0.2c-0.2,0.2,0,0.6,0,0.8c0.2,0.8-0.5,0.5-1,0.5c-0.4-0.2-0.3-0.2-0.2-0.6c0.3-0.9,0.2-1.8-0.1-2.6
	c-0.2-0.2-0.5-0.3-0.5,0.1c0,0.3,0,1,0,1.4c-0.2,0.4-0.3,1.2-0.6,1.5l-0.1-0.1c0.1-0.5,0.2-1.6-0.4-1.8c-0.3,0.1-0.3,0.8-0.3,1.1
	c-0.1,0.3-0.7,1.7-0.8,2c-0.4,1.2,0.5,0.8,0.8,0.1c0.3-0.1,0.3,0.3,0.3,0.5c0,0.3,0,0.8,0.4,0.8c0.3,0,0.6-0.2,0.7-0.5
	c0.1-0.3,0.2-0.7,0.4-1c0.1-0.4,0.3-0.3,0.6-0.3c0.2,0.1,0.9,0.1,1,0.4c0,0.1-0.4,0.1-0.5,0.2l-0.5,0.2c-0.2,0.2-0.4,0.4-0.6,0.7
	c0,0.1-0.1,0.2,0,0.3l0.1,0.3c0.3,0.6,0.6,0.9,1.4,0.9c0.9,0,1.4-0.7,1.5-1.5c0.2-0.1,0.6,0.1,0.8,0.2c1.3,0.4,1.4,1,0,1.2
	c-0.8,0.3-1.7,0.4-2.5,0.4c-0.3-0.1-0.9-0.3-1.2-0.4c-0.6-0.2-1.4-0.5-2.1-0.8l-0.6-0.2c-0.2-0.1-0.5-0.2-0.5,0.1
	c0.1,0.3,0.3,0.9,0.7,0.9c0.4,0.2,0.8,0.3,1.3,0.3c0.2,0.1,0.5,0.2,0.8,0.2c0.2,0.1,0.8,0.1,0.7,0.5c-0.6,0.3-1.2,0.5-1.9,0.6
	c-1.4-0.3-2.9-0.8-4.3-1.2c-0.2-0.1-0.8-0.3-1-0.4c-0.3-0.2-0.7-0.4-1.1-0.5c-0.2,0.2,0.1,0.9,0.1,1.2c0.1,0.4,0.2,1,0.6,1.3
	c1,0.1,2.1,0,3.1,0c0.3,0.1,1.3,0,1.6,0.3c0,0.2-0.2,0.3-0.3,0.5c-0.8,0.9-1.7,1.7-2.6,2.5c-0.7,0.2-1.3-0.8-1.8-1.2
	c-0.1-0.1-0.1,0-0.2,0c0,0.4,0.4,0.9,0.5,1.2c0.2,0.5,0.3,0.9,0.6,1.3l0.1,0.2c0.1,0.1,0.1,0.1,0.2,0.2l0.2,0.1
	c0.5,0.1,1-0.4,1.3-0.8c0.1-0.2,1.7-2.1,1.7-2.1c0.5-0.5,1-1,1.6-1.5c0.1,0,0.3,0,0.4,0.1c0.2,0.1,0.2,0.3,0.2,0.5c0,0,0,0,0,0
	c-0.1,0.2-0.8,0.5-0.5,0.7c0.5,0.1,0.9,0.2,1.3,0.4c0.3,0,0.8,0.2,0.9-0.2c0-0.6-0.2-1.2-0.7-1.7c-0.1-0.1-0.4-0.2-0.3-0.4
	c0.7,0,1.3,0,1.9,0.2c0.1,0,0.3,0,0.4-0.1c0.2-0.2,0.1-0.7,0.1-1c0-0.1-0.1-0.3-0.1-0.4c0.8-0.1,1.5,0,2.3,0.2
	c0.5,0.2,1.3,0.6,1.7,0C114.8,36.7,114.9,36.1,114.7,35.5z M110,34.9c-0.1,0.2-0.3,0.5-0.6,0.4c-0.1-0.1-0.2-0.3-0.3-0.4
	c0-0.2,0.1-0.4,0.3-0.5c0.1,0,0.4-0.1,0.5,0C110.2,34.5,110,34.7,110,34.9z M55.6,25.7l0.3-0.1c0.7-0.5,1.4-0.9,2.1-1.3
	c0.3-0.1,0.9-0.2,1.1-0.5c0.3-0.6,0.1-1.3-0.5-1.6c-0.1,0-0.1-0.1-0.2-0.1c-0.1,0-0.2,0.1-0.2,0.2c0.2,0.3-0.9,1-1,1.2
	c-0.7,0.6-1.2,1.3-1.8,2c0,0-0.3,0.3-0.3,0.3C55.3,25.8,55.5,25.7,55.6,25.7L55.6,25.7z M59.3,28.2c-0.2,0.2-0.4,0.4-0.5,0.6
	c-0.3,0-0.1-0.3-0.1-0.5l0.1-0.7c0.1-0.5,0.3-1,0.5-1.4c0-0.2-0.3-0.5-0.4-0.6c-0.2-0.3-0.5-0.4-0.9-0.5c-0.3,0.1-0.4,0.6-0.4,0.9
	c-0.8,1.3-2.4,2.1-3.4,3.1c0.2,0.2,0.5,0.4,0.8,0.4c0.1,0,0.2,0,0.3,0c0.9-0.1,1.6-1.7,2.2-2c0.1,0,0.1,0.9,0.1,0.9s0,0.5,0,0.6
	s0.1,1,0.1,1c0,0.1-0.1,0.2-0.2,0.3c-0.1,0-0.1,0-0.2,0c0-0.1,0.1-0.1,0.1-0.2c0-0.1-0.2-0.7-0.4-0.5c-0.2,0.6-0.9,1.1-0.8,1.8
	c0.2,0.3,0.1,0.7,0.4,0.9c0.2,0,0.5-0.5,0.7-0.6c0.1-0.1,0.4-0.5,0.5-0.5c0.1,0.1,0.1,0.5,0.2,0.7c0.1,0.1,0.4,0.2,0.5,0.3
	c0.2,0,0.4-0.1,0.6-0.3c0.1-0.1-0.1-0.3-0.1-0.5c0-0.3-0.1-0.7-0.1-1c-0.1-0.5,0.5-1.1,0.7-1.5c0.2-0.4,0.4-0.8,0.6-1.2
	c0-0.1,0-0.3-0.1-0.4C59.7,27.5,59.4,28,59.3,28.2L59.3,28.2z M81.8,31.7c-1.6,0.1-2.4-0.6-3.4-1.8c0.2-0.5,0.5-0.9,0.9-1.3l0.3-0.2
	c0-0.1,0.1-0.3,0.2-0.4c-0.1-0.4-0.5-0.6-0.8-0.8c-0.1,0-0.3,0-0.4,0c0.1-0.5,0.3-0.9,0.6-1.3c0.3-0.4,0.5-1,1-1.2
	c0.3-0.1,0.6-0.3,0.9-0.4c0.1-0.1,0.2-0.2,0.1-0.3l-0.3-0.4c-0.1,0-0.2-0.1-0.3-0.1c0-0.5-0.6-0.9-1-1.1l-0.2-0.1L79,22.4
	c-0.1,0.2-0.1,0.5-0.1,0.8l-0.2,0.5l-0.2,0.6l-0.4,0.3c-0.9,0.4-1.8,1-2.7,1.3c-0.1,0.4,0.7,0.6,1,0.6c0.4-0.1,1-0.6,1.4-0.7
	c-0.1,0.5-0.3,1-0.6,1.4c-0.1,0.1-0.3,0.4-0.3,0.5c0,0.1,0,0.3,0.1,0.4c0,0.1,0.2,0.3,0.3,0.3c0.2-0.1,0.4-0.2,0.6-0.3l0.1,0.1
	c0.1,0.3-0.5,0.9-0.6,1.1c-0.2-0.1-0.4-0.4-0.6-0.5c-0.2-0.1-0.5-0.4-0.8-0.3c-0.1,0.3,0.2,0.7,0.3,0.9c0.1,0.2,0.2,0.5,0.3,0.6
	c0.1,0.2-0.2,0.4-0.2,0.6c-0.4,0.4-0.8,0.8-1.3,1.2c-0.3,0.2-1.1,0.6-1.3,0.1c0.2-2.3,0.7-4.5,1.5-6.6c0.2-0.2,0.7-0.5,1-0.7
	l0.3-0.2l0-0.2c-0.1-0.1-0.2-0.7-0.5-0.4l-0.1-0.1c0.3-0.3-0.7-1.2-0.9-1.4c-0.1,0-0.4,0.1-0.4,0.2l-0.1,0.4
	c-0.1,0.4-0.2,0.9-0.4,1.3l-1.2,0.6c-0.2,0-0.4,0-0.6,0.1c0,0.1,0.2,0.5,0.2,0.6c0.1,0.1,0.4,0.5,0.6,0.5l0.2,0
	c0.1-0.1,0.2-0.2,0.3-0.2c-0.1,0.3-0.2,0.7-0.3,1c-0.2,0.5-0.9,1-1.3,1.3c-0.4,0.3-1.1,1-1.5,1.3c-0.1,0.1-0.3,0.2-0.5,0.3
	c-0.8,0.4-0.7,0.4-0.2,1c0.2,0.1,0.3,0.2,0.5,0.2c0,0,0.1,0,0.1,0c0.4-0.2,0.8-0.5,1.1-0.8c0.1-0.1,0.1-0.1,0.2-0.2
	c0.1-0.2,0.3-0.5,0.5-0.6c0.2-0.3,0.6-0.8,0.8-1l0.1,0c-0.1,0.2-0.3,1-0.3,1.2c-0.1,0.3-0.2,2.3-0.6,2.4c-0.1,0-0.4,0-0.6-0.1
	c-0.3-0.1-0.5-0.3-0.8,0v0.1c0.6,0.3,1.1,0.7,1.6,1.1l0.2,0.2c0,0.1,0.1,0.2,0.2,0.2c0.4-0.1,0.7-0.4,0.8-0.9l0.1,0
	c0.4,0.7,0.5,0.6,1.1,0.3c0.9-0.5,1.7-1.1,2.4-1.8c0.3,0.4,0.6,0.8,0.8,1.2c0.1,0.2,0.2,0.6,0.5,0.6c0.7,0,1.4-0.1,2.1-0.3
	c0.3-0.2,1.2-0.3,1.4-0.6C82.1,31.7,81.9,31.7,81.8,31.7L81.8,31.7z M64.2,25.5c0-0.2-0.1-0.3-0.2-0.3c-0.1,0,0,0.5-0.1,0.6
	c-0.1,0.4-0.3,0.9-0.6,1.2c-0.1,0-0.1-0.2-0.1-0.2c-0.1-0.5,0-1.2,0-1.8c0-0.1,0-0.1,0-0.2c0.2-1.5,0.1-2.5-1.6-2.6
	c-0.4,0.4-0.2,1.1,0,1.5c0.1,0.4,0.2,0.7,0.2,1.1c0.2,0.9,0.2,2.2,0.3,3.1c0,0.1,0,0.4-0.1,0.4C62,28.5,61.5,29,61.4,29l-0.1,0
	c0-0.2,0.1-0.4,0.2-0.5l0-0.4c0-0.5-0.7-0.8-0.7-1.4c0.2-0.5,0.3-1.1,0.2-1.6c-0.2-0.4-1.8-1.7-1.7-0.6c0.2,0.6,0.6,1.1,1.1,1.6
	c0.2,0.4-0.1,0.8-0.1,1.2c0.1,0.3,0.3,0.8,0.4,1.1c0.1,0.3,0.2,0.7,0.1,1c-0.1,0.3-0.4,0.8-0.3,1c0.2,0.4,0.7,0.2,1,0.1l0.5-0.5
	c0-0.1,0.3-0.4,0.4-0.4c0.2,1.4,0.3,3.4,0.5,4.9c0.1,0.4,0,0.7,0.5,0.6c0.2-0.1,0.4-0.4,0.5-0.7c0.1-1.2,0-2.3-0.1-3.5
	c-0.1-0.6-0.1-1.4-0.2-2c-0.1-0.4,0.1-0.7,0.4-0.9c0.2-0.2,1-1,1-1.3c-0.1-0.2-0.3-0.4-0.4-0.6C64.3,25.9,64.2,25.7,64.2,25.5z
	 M34.5,40.4c-0.1-0.2-0.6-0.9-0.7-1c0.4-0.6,0.8-1.2,1.2-1.7c0.3-0.7-0.3-0.6-0.8-0.5c-0.4,0-0.7,0-1.1,0c-0.1-0.1,0-0.2,0.1-0.5
	c0.2-0.4,0.5-0.8,0.7-1.1c0.4-0.6,0.7-1.2,1-1.8c-0.2-0.2-0.5-0.4-0.8-0.4c-0.3,0-0.6,0.1-0.8,0.3c-0.3,0.6-0.6,1.1-0.9,1.6
	c-0.3,0,0-1.1-0.1-1.2c0.1-0.2,0.3-0.5,0.4-0.7c0.1-0.2,0.3-0.6,0.1-0.8c-0.2-0.1-0.5-0.1-0.7,0c-0.3,0-0.7-0.1-1-0.1
	c-0.2,0.1-0.3,0.2-0.2,0.4l0.2,0.3c0.1,0.2,0.2,0.4,0.2,0.7c0,0.3-0.2,0.6-0.4,0.9c-0.2,0.2-0.5,0-0.7-0.1c-0.1,0-0.3,0-0.3-0.1
	l0.1-0.7c0.1-0.8,0.1-0.8,0.7-1.4c0.3-0.4,0.5-0.8,0.7-1.3c0.1-0.4,0-0.8-0.3-1c-0.5-0.1-1.4-0.5-1.9-0.3c-0.2,0.6-0.2,1.3,0,1.9
	c0.2,0.6,0.3,1.2-0.4,1.4c-0.1-0.2-0.1-0.3-0.2-0.5c-0.1-0.2-0.2-0.4-0.3-0.6c0-0.1-0.3-0.5-0.4-0.6c-0.5-0.1-1.1,0-1.6,0
	c-0.4,0.2-0.5,0.2-0.3,0.7c0.1,0.1,1.2,0.4,1.5,0.6c0.3,0.2,0.7,0.4,1,0.5l0.1,0.1c0,0.2-0.6,0.5-0.7,0.6c-0.4,0.3-0.8,0.6-1.2,0.8
	c-0.3,0.1-0.7,0.5-1,0.6c-0.4,0.7,0.8,0.7,1.2,0.8c0.3,0.1,0.5-0.2,0.6-0.4l0.5-0.7c0.3-0.2,1.1-1.4,1.5-1.3c0,0.2,0,0.5,0,0.8
	c-0.1,0.1-0.3,0.1-0.4,0.1c-0.1,0-0.3,0-0.3,0.2c0,0.1-0.1,0.4,0,0.5c0.2,0.2,0.6,0.5,0.8,0.8l0,0.1c-0.2,0-0.5,0-0.7,0
	c-0.1,0.1,0,0.4-0.1,0.6c-0.5,0-1-0.2-1.5-0.1c-0.2,0-0.6-0.1-0.5,0.2c0.2,0.4,0.8,0.7,1.1,1c0.1,0.2-0.2,0.5-0.3,0.6l0.1,0.1
	c0.5,0,1.1,0.1,1.6,0.2c0.6-0.4,0.3-1.6,0.8-2.1c0.3,0,0.5,0.5,0.6,0.7c-0.2,0.3-0.4,0.7-0.7,1c-1.1,1.3-2.2,2.5-3.4,3.6
	c0.1,0.2,0.1,0.4,0.4,0.4c0.6,0,1.2-0.1,1.7-0.4c0.6-0.5,0.8-1.5,1.2-2.1c0.2-0.4,0.7-1.2,1-1.5c0.2-0.4,0.3-0.6,0.6-0.1
	c0.1,0.4-0.2,0.8-0.4,1.2c-0.5,1-0.9,2-1.2,3.1c-0.2,0.6,0,0.6,0.5,0.6c0.4-0.1,0.8-0.8,1-1c0.4-0.6,0.8-1.2,1.4-1.8
	c0,0,0.4,0.7,0.5,0.8c0.1,0.1,0.3,0.4,0.4,0.6c0.2,0.2,0.8,1.3,1,1.5c0.1,0.1,0.3,0.2,0.4,0.3c0.2,0,0.4,0.1,0.6,0.1
	c0.1,0,0.2-0.6,0.2-0.7c0-0.5-0.2-1-0.4-1.4C35.3,41.4,34.7,40.7,34.5,40.4z M30.1,30.9c0.2-0.1,0.4,0.1,0.5,0.3
	c0,0.2-0.1,0.4-0.2,0.5c-0.1,0.1-0.2,0.2-0.3,0.1c-0.1-0.2-0.1-0.4-0.1-0.6C30.1,31.1,30.1,31,30.1,30.9z M31.1,35.3
	c-0.1-0.2,0-0.4,0.2-0.4c0.2-0.1,0.4-0.3,0.6-0.1c0.2,0.3,0.3,0.6,0.3,1c0,0.2-0.1,0.4-0.2,0.5c0,0.1-0.1,0.2-0.2,0.1
	C31.5,36.1,31.3,35.5,31.1,35.3z M32.2,40c-0.2,0.3-0.6,0.9-0.8,1.1c-0.1,0.1-0.4,0.5-0.5,0.5l0,0c0.2-0.8,0.8-1.5,1.1-2.3
	c0.2-0.1,0.3,0.2,0.3,0.3C32.3,39.7,32.3,39.9,32.2,40z M32.2,37c0.1-0.4,0.5-0.8,0.7-1.2c0.1-0.2,0.3-0.6,0.5-0.6
	c0.1,0.2-0.1,0.5-0.2,0.6c-0.1,0.2-0.2,0.4-0.3,0.7C32.8,36.8,32.7,37.2,32.2,37z M33.5,38.3c-0.1,0.1-0.1,0.1-0.2,0.1l0,0
	c-0.1-0.1-0.5-0.6-0.4-0.8c0.2,0.1,0.6,0.2,0.7,0.4C33.6,38.1,33.6,38.2,33.5,38.3L33.5,38.3z M45.6,31.6c0-0.1,0.1-0.2,0.2-0.2
	c0.1,0,0.2-0.1,0.4-0.2c0.3-0.3,0.7-0.8,1-1c0.1-0.1,0.3-0.6,0.3-0.7c0-0.1,0-0.1-0.1-0.2l-0.2-0.1c-0.6-0.1-0.8-0.1-0.7-0.8
	c0.2-0.7,0.5-1.3,1-1.8c0.5-0.6,0.2-1.4-0.6-1.2c-0.2,0-0.6,0.3-0.8,0.4c-0.3,0.3-0.5,0.6-0.7,0.9c-0.2,0.3-0.5,0.8-0.7,1.1
	c-0.1,0.1-0.2,0.5-0.4,0.3c-0.2-0.4-0.3-0.7-0.4-1.1c-0.1-0.4,0-1.1-0.6-1.2c-0.3-0.1-0.6-0.1-0.9-0.1c-0.1,0-0.4-0.1-0.5,0.1
	c-0.1,0.3-0.4,0.8-0.4,1.1c0.2,0.4,0.7,0.7,1,1c0.3,0.6,0.8,1.3,1,1.9c0,0-0.8,2-0.9,1.9c-0.4-0.2-0.7-0.5-0.9-0.9
	c-0.1-0.1-0.2-0.2-0.4-0.3c-0.1-0.1-0.2-0.2-0.3-0.3c-0.5,0-0.4,0.4-0.4,0.7c0,0.3,0,0.7,0.1,1c0.1,0.5,0,1.3,0.4,1.7
	c0.5,0.2,1.4,0.6,1.8,0.1c0.2-0.9,0.4-1.7,0.7-2.5c0.2-1.1,1.6,3.4,1.7,3.6c0.1,0.9,0.4,1.8,0.9,2.5c0.3,0.3,0.6,0.6,1.1,0.8
	c0.3,0.1,0.4-0.2,0.5-0.4c0-0.8-0.3-1.5-0.7-2.1C46.7,34.3,46.1,33,45.6,31.6L45.6,31.6z M45.1,30.4c-0.1-0.3-0.2-0.6-0.4-0.9
	c0-0.4,0.3-0.9,0.5-1.2c0.1-0.1,0.2-0.3,0.3-0.3c0.2,0.2,0.2,0.8,0.2,1.1c0.1,0.3,0.1,0.7,0,1.1C45.6,30.3,45.3,30.9,45.1,30.4
	L45.1,30.4z M94.7,36.1c-0.5-0.5-0.9-1.1-1.1-1.8c-0.1-0.5-0.2-1.1-0.2-1.6c0-0.3,0.1-0.8-0.3-0.9c-0.3,0-0.3,0.1-0.3,0.4
	c0,0.2-0.1,0.6-0.2,0.8c-0.1,0.9-0.2,1.9-0.3,2.9c0.3,1,0.6,0.6,1.4,0.9c0.6,0.1,1.2,0.2,1.9,0.2C95.7,36.5,95,36.3,94.7,36.1
	L94.7,36.1z"/>
</svg>
