<svg width="2727" height="1996" xmlns="http://www.w3.org/2000/svg" xmlns:xlink="http://www.w3.org/1999/xlink" xml:space="preserve" overflow="hidden"><defs><clipPath id="clip0"><rect x="701" y="212" width="2727" height="1996"/></clipPath><radialGradient cx="724196" cy="112449" r="730282" fy="112449" gradientUnits="userSpaceOnUse" spreadMethod="pad" id="fill1" gradientTransform="matrix(0.000360892 0 0 0.000360892 2665.64 682.918)"><stop offset="0" stop-color="#E6774A"/><stop offset="0.00980392" stop-color="#E5774A"/><stop offset="0.0196078" stop-color="#E5774B"/><stop offset="0.0294118" stop-color="#E5774C"/><stop offset="0.0392157" stop-color="#E5774D"/><stop offset="0.0490196" stop-color="#E5774E"/><stop offset="0.0588235" stop-color="#E5774F"/><stop offset="0.0686275" stop-color="#E57750"/><stop offset="0.0784314" stop-color="#E57851"/><stop offset="0.0882353" stop-color="#E47852"/><stop offset="0.0980392" stop-color="#E47853"/><stop offset="0.107843" stop-color="#E47854"/><stop offset="0.117647" stop-color="#E47855"/><stop offset="0.127451" stop-color="#E37855"/><stop offset="0.137255" stop-color="#E37856"/><stop offset="0.147059" stop-color="#E37957"/><stop offset="0.156863" stop-color="#E27958"/><stop offset="0.166667" stop-color="#E27959"/><stop offset="0.176471" stop-color="#E2795A"/><stop offset="0.186275" stop-color="#E1795A"/><stop offset="0.196078" stop-color="#E1795B"/><stop offset="0.205882" stop-color="#E0795C"/><stop offset="0.215686" stop-color="#E0795D"/><stop offset="0.22549" stop-color="#DF7A5E"/><stop offset="0.235294" stop-color="#DF7A5E"/><stop offset="0.245098" stop-color="#DE7A5F"/><stop offset="0.254902" stop-color="#DE7A60"/><stop offset="0.264706" stop-color="#DD7A61"/><stop offset="0.27451" stop-color="#DC7A61"/><stop offset="0.284314" stop-color="#DC7A62"/><stop offset="0.294118" stop-color="#DB7A63"/><stop offset="0.303922" stop-color="#DA7A64"/><stop offset="0.313726" stop-color="#DA7B64"/><stop offset="0.323529" stop-color="#D97B65"/><stop offset="0.333333" stop-color="#D87B66"/><stop offset="0.343137" stop-color="#D87B66"/><stop offset="0.352941" stop-color="#D77B67"/><stop offset="0.362745" stop-color="#D67B68"/><stop offset="0.372549" stop-color="#D57B68"/><stop offset="0.382353" stop-color="#D57B69"/><stop offset="0.392157" stop-color="#D47B6A"/><stop offset="0.401961" stop-color="#D37B6A"/><stop offset="0.411765" stop-color="#D27C6B"/><stop offset="0.421569" stop-color="#D17C6C"/><stop offset="0.431373" stop-color="#D07C6C"/><stop offset="0.441176" stop-color="#CF7C6D"/><stop offset="0.45098" stop-color="#CE7C6D"/><stop offset="0.460784" stop-color="#CD7C6E"/><stop offset="0.470588" stop-color="#CC7C6E"/><stop offset="0.480392" stop-color="#CB7C6F"/><stop offset="0.490196" stop-color="#CA7C70"/><stop offset="0.5" stop-color="#C97C70"/><stop offset="0.509804" stop-color="#C87C71"/><stop offset="0.519608" stop-color="#C77C71"/><stop offset="0.529412" stop-color="#C67D72"/><stop offset="0.539216" stop-color="#C57D72"/><stop offset="0.54902" stop-color="#C47D73"/><stop offset="0.558824" stop-color="#C37D73"/><stop offset="0.568627" stop-color="#C27D74"/><stop offset="0.578431" stop-color="#C17D74"/><stop offset="0.588235" stop-color="#BF7D74"/><stop offset="0.598039" stop-color="#BE7D75"/><stop offset="0.607843" stop-color="#BD7D75"/><stop offset="0.617647" stop-color="#BC7D76"/><stop offset="0.627451" stop-color="#BB7D76"/><stop offset="0.637255" stop-color="#B97D77"/><stop offset="0.647059" stop-color="#B87D77"/><stop offset="0.656863" stop-color="#B77D77"/><stop offset="0.666667" stop-color="#B57D78"/><stop offset="0.676471" stop-color="#B47E78"/><stop offset="0.686275" stop-color="#B37E78"/><stop offset="0.696078" stop-color="#B17E79"/><stop offset="0.705882" stop-color="#B07E79"/><stop offset="0.715686" stop-color="#AE7E79"/><stop offset="0.72549" stop-color="#AD7E7A"/><stop offset="0.735294" stop-color="#AC7E7A"/><stop offset="0.745098" stop-color="#AA7E7A"/><stop offset="0.754902" stop-color="#A97E7B"/><stop offset="0.764706" stop-color="#A77E7B"/><stop offset="0.77451" stop-color="#A67E7B"/><stop offset="0.784314" stop-color="#A47E7C"/><stop offset="0.794118" stop-color="#A37E7C"/><stop offset="0.803922" stop-color="#A17E7C"/><stop offset="0.813725" stop-color="#A07E7C"/><stop offset="0.823529" stop-color="#9E7E7C"/><stop offset="0.833333" stop-color="#9C7E7D"/><stop offset="0.843137" stop-color="#9B7E7D"/><stop offset="0.852941" stop-color="#997E7D"/><stop offset="0.862745" stop-color="#977E7D"/><stop offset="0.872549" stop-color="#967E7D"/><stop offset="0.882353" stop-color="#947E7E"/><stop offset="0.892157" stop-color="#927E7E"/><stop offset="0.901961" stop-color="#917E7E"/><stop offset="0.911765" stop-color="#8F7E7E"/><stop offset="0.921569" stop-color="#8D7E7E"/><stop offset="0.931373" stop-color="#8B7E7E"/><stop offset="0.941176" stop-color="#8A7E7E"/><stop offset="0.95098" stop-color="#887E7E"/><stop offset="0.960784" stop-color="#867E7E"/><stop offset="0.970588" stop-color="#847E7E"/><stop offset="0.980392" stop-color="#827E7E"/><stop offset="0.990196" stop-color="#807E7E"/><stop offset="1" stop-color="#7F7F7F"/></radialGradient><radialGradient cx="724196" cy="112449" r="730282" fy="112449" gradientUnits="userSpaceOnUse" spreadMethod="pad" id="fill2" gradientTransform="matrix(0.000360892 0 0 0.000360892 2665.64 682.918)"><stop offset="0" stop-color="#E6774A"/><stop offset="0.00980392" stop-color="#E5774A"/><stop offset="0.0196078" stop-color="#E5774B"/><stop offset="0.0294118" stop-color="#E5774C"/><stop offset="0.0392157" stop-color="#E5774D"/><stop offset="0.0490196" stop-color="#E5774E"/><stop offset="0.0588235" stop-color="#E5774F"/><stop offset="0.0686275" stop-color="#E57750"/><stop offset="0.0784314" stop-color="#E57851"/><stop offset="0.0882353" stop-color="#E47852"/><stop offset="0.0980392" stop-color="#E47853"/><stop offset="0.107843" stop-color="#E47854"/><stop offset="0.117647" stop-color="#E47855"/><stop offset="0.127451" stop-color="#E37855"/><stop offset="0.137255" stop-color="#E37856"/><stop offset="0.147059" stop-color="#E37957"/><stop offset="0.156863" stop-color="#E27958"/><stop offset="0.166667" stop-color="#E27959"/><stop offset="0.176471" stop-color="#E2795A"/><stop offset="0.186275" stop-color="#E1795A"/><stop offset="0.196078" stop-color="#E1795B"/><stop offset="0.205882" stop-color="#E0795C"/><stop offset="0.215686" stop-color="#E0795D"/><stop offset="0.22549" stop-color="#DF7A5E"/><stop offset="0.235294" stop-color="#DF7A5E"/><stop offset="0.245098" stop-color="#DE7A5F"/><stop offset="0.254902" stop-color="#DE7A60"/><stop offset="0.264706" stop-color="#DD7A61"/><stop offset="0.27451" stop-color="#DC7A61"/><stop offset="0.284314" stop-color="#DC7A62"/><stop offset="0.294118" stop-color="#DB7A63"/><stop offset="0.303922" stop-color="#DA7A64"/><stop offset="0.313726" stop-color="#DA7B64"/><stop offset="0.323529" stop-color="#D97B65"/><stop offset="0.333333" stop-color="#D87B66"/><stop offset="0.343137" stop-color="#D87B66"/><stop offset="0.352941" stop-color="#D77B67"/><stop offset="0.362745" stop-color="#D67B68"/><stop offset="0.372549" stop-color="#D57B68"/><stop offset="0.382353" stop-color="#D57B69"/><stop offset="0.392157" stop-color="#D47B6A"/><stop offset="0.401961" stop-color="#D37B6A"/><stop offset="0.411765" stop-color="#D27C6B"/><stop offset="0.421569" stop-color="#D17C6C"/><stop offset="0.431373" stop-color="#D07C6C"/><stop offset="0.441176" stop-color="#CF7C6D"/><stop offset="0.45098" stop-color="#CE7C6D"/><stop offset="0.460784" stop-color="#CD7C6E"/><stop offset="0.470588" stop-color="#CC7C6E"/><stop offset="0.480392" stop-color="#CB7C6F"/><stop offset="0.490196" stop-color="#CA7C70"/><stop offset="0.5" stop-color="#C97C70"/><stop offset="0.509804" stop-color="#C87C71"/><stop offset="0.519608" stop-color="#C77C71"/><stop offset="0.529412" stop-color="#C67D72"/><stop offset="0.539216" stop-color="#C57D72"/><stop offset="0.54902" stop-color="#C47D73"/><stop offset="0.558824" stop-color="#C37D73"/><stop offset="0.568627" stop-color="#C27D74"/><stop offset="0.578431" stop-color="#C17D74"/><stop offset="0.588235" stop-color="#BF7D74"/><stop offset="0.598039" stop-color="#BE7D75"/><stop offset="0.607843" stop-color="#BD7D75"/><stop offset="0.617647" stop-color="#BC7D76"/><stop offset="0.627451" stop-color="#BB7D76"/><stop offset="0.637255" stop-color="#B97D77"/><stop offset="0.647059" stop-color="#B87D77"/><stop offset="0.656863" stop-color="#B77D77"/><stop offset="0.666667" stop-color="#B57D78"/><stop offset="0.676471" stop-color="#B47E78"/><stop offset="0.686275" stop-color="#B37E78"/><stop offset="0.696078" stop-color="#B17E79"/><stop offset="0.705882" stop-color="#B07E79"/><stop offset="0.715686" stop-color="#AE7E79"/><stop offset="0.72549" stop-color="#AD7E7A"/><stop offset="0.735294" stop-color="#AC7E7A"/><stop offset="0.745098" stop-color="#AA7E7A"/><stop offset="0.754902" stop-color="#A97E7B"/><stop offset="0.764706" stop-color="#A77E7B"/><stop offset="0.77451" stop-color="#A67E7B"/><stop offset="0.784314" stop-color="#A47E7C"/><stop offset="0.794118" stop-color="#A37E7C"/><stop offset="0.803922" stop-color="#A17E7C"/><stop offset="0.813725" stop-color="#A07E7C"/><stop offset="0.823529" stop-color="#9E7E7C"/><stop offset="0.833333" stop-color="#9C7E7D"/><stop offset="0.843137" stop-color="#9B7E7D"/><stop offset="0.852941" stop-color="#997E7D"/><stop offset="0.862745" stop-color="#977E7D"/><stop offset="0.872549" stop-color="#967E7D"/><stop offset="0.882353" stop-color="#947E7E"/><stop offset="0.892157" stop-color="#927E7E"/><stop offset="0.901961" stop-color="#917E7E"/><stop offset="0.911765" stop-color="#8F7E7E"/><stop offset="0.921569" stop-color="#8D7E7E"/><stop offset="0.931373" stop-color="#8B7E7E"/><stop offset="0.941176" stop-color="#8A7E7E"/><stop offset="0.95098" stop-color="#887E7E"/><stop offset="0.960784" stop-color="#867E7E"/><stop offset="0.970588" stop-color="#847E7E"/><stop offset="0.980392" stop-color="#827E7E"/><stop offset="0.990196" stop-color="#807E7E"/><stop offset="1" stop-color="#7F7F7F"/></radialGradient><radialGradient cx="532015" cy="295102" r="608378" fx="532014" fy="767264" gradientUnits="userSpaceOnUse" spreadMethod="pad" id="fill3" gradientTransform="matrix(-0.000360892 4.41966e-20 -4.41966e-20 -0.000360892 3112 977)"><stop offset="0" stop-color="#E6774A"/><stop offset="0.77" stop-color="#BFBFBF"/><stop offset="1" stop-color="#BFBFBF"/></radialGradient><radialGradient cx="722198" cy="112917" r="730282" fx="722198" fy="112917" gradientUnits="userSpaceOnUse" spreadMethod="pad" id="fill4" gradientTransform="matrix(0.000360892 0 0 0.000360892 1505.36 682.749)"><stop offset="0" stop-color="#E6774A"/><stop offset="0.6" stop-color="#7F7F7F"/><stop offset="1" stop-color="#7F7F7F"/></radialGradient><radialGradient cx="722198" cy="112917" r="730282" fx="722198" fy="112917" gradientUnits="userSpaceOnUse" spreadMethod="pad" id="fill5" gradientTransform="matrix(0.000360892 0 0 0.000360892 1505.36 682.749)"><stop offset="0" stop-color="#E6774A"/><stop offset="0.6" stop-color="#7F7F7F"/><stop offset="1" stop-color="#7F7F7F"/></radialGradient><radialGradient cx="532015" cy="295102" r="608379" fy="767265" gradientUnits="userSpaceOnUse" spreadMethod="pad" id="fill6" gradientTransform="matrix(-0.000360892 4.41966e-20 -4.41966e-20 -0.000360892 1963 978)"><stop offset="0" stop-color="#E6774A"/><stop offset="0.51" stop-color="#BFBFBF"/><stop offset="1" stop-color="#BFBFBF"/></radialGradient></defs><g clip-path="url(#clip0)" transform="translate(-701 -212)"><text fill="#C04C1F" font-family="Times New Roman,Times New Roman_MSFontService,sans-serif" font-weight="700" font-size="110" transform="matrix(1 0 0 1 2990.03 491)">Method<tspan font-size="110" x="-172.396" y="749">Mechanism</tspan></text><path d="M711.5 1089.5 3394.65 1089.5" stroke="#000000" stroke-width="4.58333" stroke-miterlimit="8" fill="none" fill-rule="evenodd"/><rect x="2891.5" y="647.5" width="69.9998" height="35.9998" stroke="#000000" stroke-width="4.58333" stroke-linejoin="round" stroke-miterlimit="10" fill="#C04C1F"/><path d="M2666.5 683.5 2905.5 683.5 2905.5 763.5 2666.5 763.5 2666.5 683.5Z" stroke="#040000" stroke-width="4.58333" stroke-linejoin="round" stroke-miterlimit="10" fill="url(#fill1)" fill-rule="evenodd"/><path d="M2945.5 683.5 3187.5 683.5 3187.5 762.5 2945.5 762.5 2945.5 683.5Z" stroke="#040000" stroke-width="4.58333" stroke-miterlimit="8" fill="url(#fill2)" fill-rule="evenodd"/><rect x="2476.5" y="762.5" width="898" height="272" stroke="#000000" stroke-width="4.58333" stroke-linejoin="round" stroke-miterlimit="10" fill="#BFBFBF"/><rect x="2728" y="764" width="384" height="213" fill="url(#fill3)"/><rect x="2913.5" y="762.5" width="24.9998" height="79.0001" stroke="#000000" stroke-width="4.58333" stroke-linejoin="round" stroke-miterlimit="10" fill="#FFFFFF"/><text fill="#040000" font-family="Times New Roman,Times New Roman_MSFontService,sans-serif" font-weight="400" font-size="83" transform="matrix(1 0 0 1 751.217 583)">Slotted ferromagnetic<tspan font-size="83" x="284.167" y="99">Lift</tspan><tspan font-size="83" x="407.917" y="99">-</tspan>off layer<tspan font-size="83" x="1135.74" y="6">Slot</tspan></text><path d="M0.0649083-5.7288 110.315-4.47964 110.186 6.97796-0.0649083 5.7288ZM104.716-16.0021 161.81 1.83333 104.327 18.3706Z" transform="matrix(1 0 0 -1 2058.5 731.333)"/><text fill="#040000" font-family="Times New Roman,Times New Roman_MSFontService,sans-serif" font-weight="400" font-size="83" transform="matrix(1 0 0 1 1297.65 465)">Measuring point <tspan font-size="83" x="563.75" y="0">(Sensor</tspan>)<tspan font-size="83" x="755.379" y="231">Scan</tspan><tspan font-size="83" x="1656.93" y="446">Defect</tspan></text><path d="M2905.5 683.5 2945.75 683.5" stroke="#000000" stroke-width="4.58333" stroke-miterlimit="8" fill="none" fill-rule="evenodd"/><path d="M1505.5 683.5 1745.5 683.5 1745.5 763.5 1505.5 763.5 1505.5 683.5Z" stroke="#040000" stroke-width="4.58333" stroke-linejoin="round" stroke-miterlimit="10" fill="url(#fill4)" fill-rule="evenodd"/><path d="M1782.5 683.5 2026.5 683.5 2026.5 762.5 1782.5 762.5 1782.5 683.5Z" stroke="#040000" stroke-width="4.58333" stroke-miterlimit="8" fill="url(#fill5)" fill-rule="evenodd"/><rect x="1320.5" y="762.5" width="898" height="272" stroke="#000000" stroke-width="4.58333" stroke-linejoin="round" stroke-miterlimit="10" fill="#BFBFBF"/><rect x="1579" y="765" width="384" height="213" fill="url(#fill6)"/><rect x="1731.5" y="647.5" width="69.0001" height="35.9998" stroke="#000000" stroke-width="4.58333" stroke-linejoin="round" stroke-miterlimit="10" fill="#C04C1F"/><path d="M1502.5 603.5 1681.01 728.715" stroke="#000000" stroke-width="3.4375" stroke-miterlimit="8" fill="none" fill-rule="evenodd"/><path d="M1676.5 493.5 1773 661.358" stroke="#000000" stroke-width="3.4375" stroke-miterlimit="8" fill="none" fill-rule="evenodd"/><path d="M0 0 105.564 173.363" stroke="#000000" stroke-width="3.4375" stroke-miterlimit="8" fill="none" fill-rule="evenodd" transform="matrix(-1 0 0 1 1877.06 571.5)"/><rect x="1492" y="637" width="548" height="135" stroke="#000000" stroke-width="2.29167" stroke-linejoin="round" stroke-miterlimit="10" stroke-dasharray="9.16667 6.875" fill="none"/><text fill="#040000" font-family="Times New Roman,Times New Roman_MSFontService,sans-serif" font-weight="400" font-size="83" transform="matrix(1 0 0 1 1350.79 989)">Workpiece</text><path d="M2054.5 2068 2043 2034 2066 2034 2054.5 2068Z" fill-rule="evenodd"/><path d="M2055 2068.5 2043.5 2034.5 2066.5 2034.5 2055 2068.5Z" stroke="#000000" stroke-width="4.88468" stroke-miterlimit="8" fill="none" fill-rule="evenodd"/><path d="M1445.5 1477.5 1977.5 1477.5 1977.5 1634.5 1445.5 1634.5 1445.5 1477.5Z" stroke="#000000" stroke-width="4.88468" stroke-miterlimit="8" fill="none" fill-rule="evenodd"/><text font-family="Times New Roman,Times New Roman_MSFontService,sans-serif" font-weight="400" font-size="64" transform="matrix(1 0 0 1 1489.34 1579)">Lift<tspan font-size="64" x="95.6771" y="0">-</tspan><tspan font-size="64" x="116.875" y="0">off increases</tspan></text><path d="M2123.5 1477.5 2705.5 1477.5 2705.5 1626.5 2123.5 1626.5 2123.5 1477.5Z" stroke="#000000" stroke-width="4.88468" stroke-miterlimit="8" fill="none" fill-rule="evenodd"/><text font-family="Times New Roman,Times New Roman_MSFontService,sans-serif" font-weight="400" font-size="64" transform="matrix(1 0 0 1 2157.01 1575)">Slot depth increases</text><path d="M2054.5 1281.5 2054.5 1330.69 1708.5 1330.69 1708.5 1438.5" stroke="#000000" stroke-width="4.88468" stroke-miterlimit="8" fill="none" fill-rule="evenodd"/><path d="M1708.5 1472 1697 1438 1720 1438 1708.5 1472Z" fill-rule="evenodd"/><path d="M1709 1472.5 1697.5 1438.5 1720.5 1438.5 1709 1472.5Z" stroke="#000000" stroke-width="4.88468" stroke-miterlimit="8" fill="none" fill-rule="evenodd"/><path d="M2054.5 1281.5 2054.5 1330.69 2376.5 1330.69 2376.5 1438.5" stroke="#000000" stroke-width="4.88468" stroke-miterlimit="8" fill="none" fill-rule="evenodd"/><path d="M2376.5 1472 2365 1438 2388 1438 2376.5 1472Z" fill-rule="evenodd"/><path d="M2377 1472.5 2365.5 1438.5 2388.5 1438.5 2377 1472.5Z" stroke="#000000" stroke-width="4.88468" stroke-miterlimit="8" fill="none" fill-rule="evenodd"/><path d="M1792.61 1144.5 2316.75 1144.5C2320.64 1144.5 2324.54 1144.85 2328.44 1145.2 2332.33 1145.55 2336.23 1146.25 2340.13 1146.96 2343.38 1147.66 2347.27 1148.71 2350.52 1149.77 2357.02 1152.22 2362.86 1155.03 2366.75 1158.54 2368.71 1160.3 2370.65 1162.05 2371.95 1164.16 2373.25 1166.26 2374.55 1168.37 2375.2 1170.47 2375.85 1172.58 2376.5 1174.69 2376.5 1176.79L2376.5 1251.56C2376.5 1255.77 2375.2 1259.98 2371.95 1263.84 2370.65 1265.6 2368.71 1267.7 2366.75 1269.46 2364.81 1271.22 2362.21 1272.97 2359.62 1274.37 2357.02 1275.78 2353.77 1277.18 2350.52 1278.23 2347.27 1279.29 2344.03 1280.34 2340.13 1281.04 2336.23 1281.75 2332.33 1282.45 2328.44 1282.8 2324.54 1283.15 2320.64 1283.5 2316.75 1283.5L1792.61 1283.5C1784.81 1283.5 1777.02 1282.8 1769.87 1281.04 1766.62 1280.34 1762.73 1279.29 1759.48 1278.23 1752.99 1275.78 1747.14 1272.97 1743.24 1269.46 1741.29 1267.7 1739.35 1265.95 1738.05 1263.84 1734.8 1259.98 1733.5 1255.77 1733.5 1251.56L1733.5 1176.44C1733.5 1174.34 1734.15 1172.23 1734.8 1170.12 1735.45 1168.02 1736.75 1165.91 1738.05 1163.81 1739.35 1161.7 1741.29 1159.94 1743.24 1158.19 1745.19 1156.43 1747.79 1154.68 1750.39 1153.28 1752.99 1151.87 1756.23 1150.47 1759.48 1149.41 1762.73 1148.36 1765.98 1147.31 1769.87 1146.61 1777.02 1145.2 1784.81 1144.5 1792.61 1144.5L1792.61 1144.5Z" stroke="#000000" stroke-width="4.88468" stroke-miterlimit="8" fill="none" fill-rule="evenodd"/><text font-family="Times New Roman,Times New Roman_MSFontService,sans-serif" font-weight="400" font-size="64" transform="matrix(1 0 0 1 1784.31 1237)">Thicken lift<tspan font-size="64" x="300.781" y="0">-</tspan><tspan font-size="64" x="321.979" y="0">off layer</tspan></text><path d="M1708.5 1867.5 1708.5 1982.19 2054.5 1982.19 2054.5 2078.5" stroke="#000000" stroke-width="4.88468" stroke-miterlimit="8" fill="none" fill-rule="evenodd"/><path d="M1443.5 1717.5 1977.5 1717.5 1977.5 1865.5 1443.5 1865.5 1443.5 1717.5Z" stroke="#000000" stroke-width="4.88468" stroke-miterlimit="8" fill="none" fill-rule="evenodd"/><text font-family="Times New Roman,Times New Roman_MSFontService,sans-serif" font-weight="400" font-size="64" transform="matrix(1 0 0 1 1512.45 1815)">LMF decreases</text><path d="M2376.5 1867.5 2376.5 1982.17 2054.5 1982.17 2054.5 2073.5" stroke="#000000" stroke-width="4.88468" stroke-miterlimit="8" fill="none" fill-rule="evenodd"/><path d="M2123.5 1717.5 2645.5 1717.5 2645.5 1865.5 2123.5 1865.5 2123.5 1717.5Z" stroke="#000000" stroke-width="4.88468" stroke-miterlimit="8" fill="none" fill-rule="evenodd"/><text font-family="Times New Roman,Times New Roman_MSFontService,sans-serif" font-weight="400" font-size="64" transform="matrix(1 0 0 1 2159.56 1776)">Derivative of slot <tspan font-size="64" x="32.6563" y="77">LMF increases </tspan></text><path d="M1867.84 2073 2240.16 2073C2242.64 2073 2244.64 2073 2247.12 2073.37 2249.61 2073.73 2251.6 2074.1 2253.6 2074.84 2255.59 2075.58 2257.58 2076.31 2259.57 2077.42 2261.56 2078.52 2263.05 2079.62 2265.04 2080.73 2266.54 2081.84 2268.03 2083.31 2269.52 2084.78 2271.02 2086.25 2272.01 2087.73 2272.51 2089.2 2274.5 2092.52 2275 2095.83 2275 2099.15L2275 2155.85C2275 2159.17 2274 2162.85 2272.51 2165.8 2271.52 2167.27 2270.52 2168.75 2269.52 2170.22 2268.03 2171.69 2266.54 2172.79 2265.04 2174.27 2263.55 2175.37 2261.56 2176.48 2259.57 2177.58 2257.58 2178.69 2255.59 2179.42 2253.6 2180.16 2251.6 2180.9 2249.12 2181.27 2247.12 2181.63 2244.64 2182 2242.64 2182 2240.16 2182L1867.84 2182C1865.36 2182 1863.36 2182 1860.88 2181.63 1858.38 2181.27 1856.4 2180.9 1854.4 2180.16 1852.41 2179.42 1850.42 2178.69 1848.43 2177.58 1844.45 2175.74 1841.46 2173.16 1838.48 2170.22 1836.98 2168.75 1835.99 2167.27 1835.49 2165.8 1833.5 2162.48 1833 2159.17 1833 2155.85L1833 2099.15C1833 2095.83 1834 2092.15 1835.49 2089.2 1836.48 2087.73 1837.48 2086.25 1838.48 2084.78 1840.96 2082.2 1844.45 2079.62 1848.43 2077.78 1850.42 2076.68 1852.41 2075.94 1854.4 2075.21 1856.4 2074.47 1858.88 2074.1 1860.88 2073.73 1863.36 2073.37 1865.36 2073.37 1867.84 2073Z" fill="#FFFFFF" fill-rule="evenodd"/><path d="M1825.38 2073.5 2283.62 2073.5C2286.68 2073.5 2289.13 2073.5 2292.19 2073.88 2295.25 2074.27 2297.71 2074.65 2300.16 2075.42 2302.61 2076.2 2305.05 2076.96 2307.51 2078.12 2309.96 2079.27 2311.79 2080.43 2314.25 2081.59 2316.08 2082.74 2317.92 2084.28 2319.76 2085.82 2321.6 2087.36 2322.82 2088.9 2323.43 2090.45 2325.88 2093.91 2326.5 2097.38 2326.5 2100.84L2326.5 2160.16C2326.5 2163.62 2325.27 2167.48 2323.43 2170.56 2322.21 2172.1 2320.99 2173.64 2319.76 2175.18 2317.92 2176.72 2316.08 2177.87 2314.25 2179.41 2312.41 2180.57 2309.96 2181.73 2307.51 2182.88 2305.05 2184.03 2302.61 2184.8 2300.16 2185.58 2297.71 2186.35 2294.64 2186.73 2292.19 2187.12 2289.13 2187.5 2286.68 2187.5 2283.62 2187.5L1825.38 2187.5C1822.32 2187.5 1819.87 2187.5 1816.81 2187.12 1813.74 2186.73 1811.29 2186.35 1808.84 2185.58 1806.39 2184.8 1803.94 2184.03 1801.49 2182.88 1796.59 2180.95 1792.92 2178.26 1789.24 2175.18 1787.4 2173.64 1786.18 2172.1 1785.56 2170.56 1783.11 2167.09 1782.5 2163.62 1782.5 2160.16L1782.5 2100.84C1782.5 2097.38 1783.73 2093.52 1785.56 2090.45 1786.79 2088.9 1788.01 2087.36 1789.24 2085.82 1792.3 2083.12 1796.59 2080.43 1801.49 2078.5 1803.94 2077.35 1806.39 2076.58 1808.84 2075.81 1811.29 2075.04 1814.36 2074.65 1816.81 2074.27 1819.87 2073.88 1822.32 2073.88 1825.38 2073.5Z" stroke="#000000" stroke-width="4.88468" stroke-miterlimit="8" fill="none" fill-rule="evenodd"/><text font-family="Times New Roman,Times New Roman_MSFontService,sans-serif" font-weight="400" font-size="64" transform="matrix(1 0 0 1 1852.58 2154)">Lift<tspan font-size="64" x="95.6771" y="0">-</tspan><tspan font-size="64" x="116.875" y="0">off tolerant</tspan></text><text font-family="Times New Roman,Times New Roman_MSFontService,sans-serif" font-weight="400" font-size="64" transform="matrix(-1.83697e-16 -1 1 -1.83697e-16 1341.96 1887)">Permeability <tspan font-size="64" x="-1.41446e-14" y="76.9999">disturbance effect</tspan><tspan font-size="64" x="-18" y="1438.58">Magnetization </tspan><tspan font-size="64" x="-18" y="1515.58">enhancement effect</tspan></text><path d="M1710.79 1634.5 1710.79 1697.68 1706.21 1697.68 1706.21 1634.5ZM1722.25 1693.1 1708.5 1720.6 1694.75 1693.1Z"/><path d="M2378.79 1626.5 2378.79 1689.68 2374.21 1689.68 2374.21 1626.5ZM2390.25 1685.1 2376.5 1712.6 2362.75 1685.1Z"/><rect x="1263.5" y="1388.5" width="734" height="532" stroke="#000000" stroke-width="4.58333" stroke-linejoin="round" stroke-miterlimit="10" stroke-dasharray="18.3333 13.75" fill="none"/><rect x="2105.5" y="1388.5" width="786" height="532" stroke="#000000" stroke-width="4.58333" stroke-linejoin="round" stroke-miterlimit="10" stroke-dasharray="18.3333 13.75" fill="none"/></g></svg>