<?xml version="1.0" encoding="utf-8"?>
<!-- Generator: Adobe Illustrator 26.1.0, SVG Export Plug-In . SVG Version: 6.00 Build 0)  -->
<svg version="1.1" id="图层_1" xmlns="http://www.w3.org/2000/svg" xmlns:xlink="http://www.w3.org/1999/xlink" x="0px" y="0px"
	 viewBox="0 0 2727 2009" style="enable-background:new 0 0 2727 2009;" xml:space="preserve">
<style type="text/css">
	.st0{clip-path:url(#SVGID_00000065063892643799294590000013307696798613179526_);}
	.st1{fill:#C04C1F;}
	.st2{font-family:'TimesNewRomanPSMT';}
	.st3{font-size:110px;}
	.st4{fill:none;stroke:#000000;stroke-width:4.5833;stroke-miterlimit:8;}
	.st5{fill:#C04C1F;stroke:#000000;stroke-width:4.5833;stroke-linejoin:round;stroke-miterlimit:10;}
	
		.st6{fill-rule:evenodd;clip-rule:evenodd;fill:url(#SVGID_00000034811503770786457960000000058318077717146009_);stroke:#040000;stroke-width:4.5833;stroke-linejoin:round;stroke-miterlimit:10;}
	
		.st7{fill-rule:evenodd;clip-rule:evenodd;fill:url(#SVGID_00000160191145331983877540000006709472628050611358_);stroke:#040000;stroke-width:4.5833;stroke-miterlimit:8;}
	.st8{fill:#BFBFBF;stroke:#000000;stroke-width:4.5833;stroke-linejoin:round;stroke-miterlimit:10;}
	.st9{fill:url(#SVGID_00000090988135910213445810000015546662255558272157_);}
	.st10{fill:#FFFFFF;stroke:#000000;stroke-width:4.5833;stroke-linejoin:round;stroke-miterlimit:10;}
	.st11{fill:#040000;}
	.st12{font-size:83px;}
	
		.st13{fill-rule:evenodd;clip-rule:evenodd;fill:url(#SVGID_00000068662230748683742850000018382334477669898649_);stroke:#040000;stroke-width:4.5833;stroke-linejoin:round;stroke-miterlimit:10;}
	
		.st14{fill-rule:evenodd;clip-rule:evenodd;fill:url(#SVGID_00000003081763950083954840000006474919035110807949_);stroke:#040000;stroke-width:4.5833;stroke-miterlimit:8;}
	.st15{fill:url(#SVGID_00000081645243354299743560000013926222213622535352_);}
	.st16{fill:none;stroke:#000000;stroke-width:3.4375;stroke-miterlimit:8;}
	.st17{fill:none;stroke:#000000;stroke-width:2.2917;stroke-linejoin:round;stroke-miterlimit:10;stroke-dasharray:9.1667,6.875;}
	.st18{fill-rule:evenodd;clip-rule:evenodd;}
	.st19{fill:none;stroke:#000000;stroke-width:4.8847;stroke-miterlimit:8;}
	.st20{font-size:64px;}
	.st21{font-size:55px;}
	.st22{fill:none;stroke:#000000;stroke-width:4.5833;stroke-linejoin:round;stroke-miterlimit:10;stroke-dasharray:18.3333,13.75;}
</style>
<g>
	<defs>
		<rect id="SVGID_1_" y="0" width="2727" height="2009"/>
	</defs>
	<clipPath id="SVGID_00000036971257641390098730000006274970227530374788_">
		<use xlink:href="#SVGID_1_"  style="overflow:visible;"/>
	</clipPath>
	<g transform="translate(-701 -199)" style="clip-path:url(#SVGID_00000036971257641390098730000006274970227530374788_);">
		<text transform="matrix(1 0 0 1 2990.03 491)" class="st1 st2 st3">Method</text>
		<text transform="matrix(1 0 0 1 2817.634 1240)" class="st1 st2 st3">Mechanism</text>
		<path class="st4" d="M711.5,1089.5h2683.1"/>
		<rect x="2891.5" y="647.5" class="st5" width="70" height="36"/>
		
			<radialGradient id="SVGID_00000109030478113918361760000016754995319727471515_" cx="724897" cy="-111408.1094" r="730282" gradientTransform="matrix(3.608920e-04 0 0 -3.608920e-04 3731.0022 1266.504)" gradientUnits="userSpaceOnUse">
			<stop  offset="0" style="stop-color:#E6774A"/>
			<stop  offset="9.803920e-03" style="stop-color:#E5774A"/>
			<stop  offset="1.960780e-02" style="stop-color:#E5774B"/>
			<stop  offset="2.941180e-02" style="stop-color:#E5774C"/>
			<stop  offset="3.921570e-02" style="stop-color:#E5774D"/>
			<stop  offset="4.901960e-02" style="stop-color:#E5774E"/>
			<stop  offset="5.882350e-02" style="stop-color:#E5774F"/>
			<stop  offset="6.862750e-02" style="stop-color:#E57750"/>
			<stop  offset="7.843140e-02" style="stop-color:#E57851"/>
			<stop  offset="8.823529e-02" style="stop-color:#E47852"/>
			<stop  offset="9.803919e-02" style="stop-color:#E47853"/>
			<stop  offset="0.1078" style="stop-color:#E47854"/>
			<stop  offset="0.1176" style="stop-color:#E47855"/>
			<stop  offset="0.1275" style="stop-color:#E37855"/>
			<stop  offset="0.1373" style="stop-color:#E37856"/>
			<stop  offset="0.1471" style="stop-color:#E37957"/>
			<stop  offset="0.1569" style="stop-color:#E27958"/>
			<stop  offset="0.1667" style="stop-color:#E27959"/>
			<stop  offset="0.1765" style="stop-color:#E2795A"/>
			<stop  offset="0.1863" style="stop-color:#E1795A"/>
			<stop  offset="0.1961" style="stop-color:#E1795B"/>
			<stop  offset="0.2059" style="stop-color:#E0795C"/>
			<stop  offset="0.2157" style="stop-color:#E0795D"/>
			<stop  offset="0.2255" style="stop-color:#DF7A5E"/>
			<stop  offset="0.2353" style="stop-color:#DF7A5E"/>
			<stop  offset="0.2451" style="stop-color:#DE7A5F"/>
			<stop  offset="0.2549" style="stop-color:#DE7A60"/>
			<stop  offset="0.2647" style="stop-color:#DD7A61"/>
			<stop  offset="0.2745" style="stop-color:#DC7A61"/>
			<stop  offset="0.2843" style="stop-color:#DC7A62"/>
			<stop  offset="0.2941" style="stop-color:#DB7A63"/>
			<stop  offset="0.3039" style="stop-color:#DA7A64"/>
			<stop  offset="0.3137" style="stop-color:#DA7B64"/>
			<stop  offset="0.3235" style="stop-color:#D97B65"/>
			<stop  offset="0.3333" style="stop-color:#D87B66"/>
			<stop  offset="0.3431" style="stop-color:#D87B66"/>
			<stop  offset="0.3529" style="stop-color:#D77B67"/>
			<stop  offset="0.3627" style="stop-color:#D67B68"/>
			<stop  offset="0.3725" style="stop-color:#D57B68"/>
			<stop  offset="0.3824" style="stop-color:#D57B69"/>
			<stop  offset="0.3922" style="stop-color:#D47B6A"/>
			<stop  offset="0.402" style="stop-color:#D37B6A"/>
			<stop  offset="0.4118" style="stop-color:#D27C6B"/>
			<stop  offset="0.4216" style="stop-color:#D17C6C"/>
			<stop  offset="0.4314" style="stop-color:#D07C6C"/>
			<stop  offset="0.4412" style="stop-color:#CF7C6D"/>
			<stop  offset="0.451" style="stop-color:#CE7C6D"/>
			<stop  offset="0.4608" style="stop-color:#CD7C6E"/>
			<stop  offset="0.4706" style="stop-color:#CC7C6E"/>
			<stop  offset="0.4804" style="stop-color:#CB7C6F"/>
			<stop  offset="0.4902" style="stop-color:#CA7C70"/>
			<stop  offset="0.5" style="stop-color:#C97C70"/>
			<stop  offset="0.5098" style="stop-color:#C87C71"/>
			<stop  offset="0.5196" style="stop-color:#C77C71"/>
			<stop  offset="0.5294" style="stop-color:#C67D72"/>
			<stop  offset="0.5392" style="stop-color:#C57D72"/>
			<stop  offset="0.549" style="stop-color:#C47D73"/>
			<stop  offset="0.5588" style="stop-color:#C37D73"/>
			<stop  offset="0.5686" style="stop-color:#C27D74"/>
			<stop  offset="0.5784" style="stop-color:#C17D74"/>
			<stop  offset="0.5882" style="stop-color:#BF7D74"/>
			<stop  offset="0.598" style="stop-color:#BE7D75"/>
			<stop  offset="0.6078" style="stop-color:#BD7D75"/>
			<stop  offset="0.6176" style="stop-color:#BC7D76"/>
			<stop  offset="0.6275" style="stop-color:#BB7D76"/>
			<stop  offset="0.6373" style="stop-color:#B97D77"/>
			<stop  offset="0.6471" style="stop-color:#B87D77"/>
			<stop  offset="0.6569" style="stop-color:#B77D77"/>
			<stop  offset="0.6667" style="stop-color:#B57D78"/>
			<stop  offset="0.6765" style="stop-color:#B47E78"/>
			<stop  offset="0.6863" style="stop-color:#B37E78"/>
			<stop  offset="0.6961" style="stop-color:#B17E79"/>
			<stop  offset="0.7059" style="stop-color:#B07E79"/>
			<stop  offset="0.7157" style="stop-color:#AE7E79"/>
			<stop  offset="0.7255" style="stop-color:#AD7E7A"/>
			<stop  offset="0.7353" style="stop-color:#AC7E7A"/>
			<stop  offset="0.7451" style="stop-color:#AA7E7A"/>
			<stop  offset="0.7549" style="stop-color:#A97E7B"/>
			<stop  offset="0.7647" style="stop-color:#A77E7B"/>
			<stop  offset="0.7745" style="stop-color:#A67E7B"/>
			<stop  offset="0.7843" style="stop-color:#A47E7C"/>
			<stop  offset="0.7941" style="stop-color:#A37E7C"/>
			<stop  offset="0.8039" style="stop-color:#A17E7C"/>
			<stop  offset="0.8137" style="stop-color:#A07E7C"/>
			<stop  offset="0.8235" style="stop-color:#9E7E7C"/>
			<stop  offset="0.8333" style="stop-color:#9C7E7D"/>
			<stop  offset="0.8431" style="stop-color:#9B7E7D"/>
			<stop  offset="0.8529" style="stop-color:#997E7D"/>
			<stop  offset="0.8627" style="stop-color:#977E7D"/>
			<stop  offset="0.8725" style="stop-color:#967E7D"/>
			<stop  offset="0.8824" style="stop-color:#947E7E"/>
			<stop  offset="0.8922" style="stop-color:#927E7E"/>
			<stop  offset="0.902" style="stop-color:#917E7E"/>
			<stop  offset="0.9118" style="stop-color:#8F7E7E"/>
			<stop  offset="0.9216" style="stop-color:#8D7E7E"/>
			<stop  offset="0.9314" style="stop-color:#8B7E7E"/>
			<stop  offset="0.9412" style="stop-color:#8A7E7E"/>
			<stop  offset="0.951" style="stop-color:#887E7E"/>
			<stop  offset="0.9608" style="stop-color:#867E7E"/>
			<stop  offset="0.9706" style="stop-color:#847E7E"/>
			<stop  offset="0.9804" style="stop-color:#827E7E"/>
			<stop  offset="0.9902" style="stop-color:#807E7E"/>
			<stop  offset="1" style="stop-color:#7F7F7F"/>
		</radialGradient>
		
			<path style="fill-rule:evenodd;clip-rule:evenodd;fill:url(#SVGID_00000109030478113918361760000016754995319727471515_);stroke:#040000;stroke-width:4.5833;stroke-linejoin:round;stroke-miterlimit:10;" d="
			M2666.5,683.5h239v80h-239V683.5z"/>
		
			<radialGradient id="SVGID_00000014629380347515448410000017952013953384225193_" cx="724897" cy="-111408.1094" r="730282" gradientTransform="matrix(3.608920e-04 0 0 -3.608920e-04 3731.0022 1266.504)" gradientUnits="userSpaceOnUse">
			<stop  offset="0" style="stop-color:#E6774A"/>
			<stop  offset="9.803920e-03" style="stop-color:#E5774A"/>
			<stop  offset="1.960780e-02" style="stop-color:#E5774B"/>
			<stop  offset="2.941180e-02" style="stop-color:#E5774C"/>
			<stop  offset="3.921570e-02" style="stop-color:#E5774D"/>
			<stop  offset="4.901960e-02" style="stop-color:#E5774E"/>
			<stop  offset="5.882350e-02" style="stop-color:#E5774F"/>
			<stop  offset="6.862750e-02" style="stop-color:#E57750"/>
			<stop  offset="7.843140e-02" style="stop-color:#E57851"/>
			<stop  offset="8.823529e-02" style="stop-color:#E47852"/>
			<stop  offset="9.803919e-02" style="stop-color:#E47853"/>
			<stop  offset="0.1078" style="stop-color:#E47854"/>
			<stop  offset="0.1176" style="stop-color:#E47855"/>
			<stop  offset="0.1275" style="stop-color:#E37855"/>
			<stop  offset="0.1373" style="stop-color:#E37856"/>
			<stop  offset="0.1471" style="stop-color:#E37957"/>
			<stop  offset="0.1569" style="stop-color:#E27958"/>
			<stop  offset="0.1667" style="stop-color:#E27959"/>
			<stop  offset="0.1765" style="stop-color:#E2795A"/>
			<stop  offset="0.1863" style="stop-color:#E1795A"/>
			<stop  offset="0.1961" style="stop-color:#E1795B"/>
			<stop  offset="0.2059" style="stop-color:#E0795C"/>
			<stop  offset="0.2157" style="stop-color:#E0795D"/>
			<stop  offset="0.2255" style="stop-color:#DF7A5E"/>
			<stop  offset="0.2353" style="stop-color:#DF7A5E"/>
			<stop  offset="0.2451" style="stop-color:#DE7A5F"/>
			<stop  offset="0.2549" style="stop-color:#DE7A60"/>
			<stop  offset="0.2647" style="stop-color:#DD7A61"/>
			<stop  offset="0.2745" style="stop-color:#DC7A61"/>
			<stop  offset="0.2843" style="stop-color:#DC7A62"/>
			<stop  offset="0.2941" style="stop-color:#DB7A63"/>
			<stop  offset="0.3039" style="stop-color:#DA7A64"/>
			<stop  offset="0.3137" style="stop-color:#DA7B64"/>
			<stop  offset="0.3235" style="stop-color:#D97B65"/>
			<stop  offset="0.3333" style="stop-color:#D87B66"/>
			<stop  offset="0.3431" style="stop-color:#D87B66"/>
			<stop  offset="0.3529" style="stop-color:#D77B67"/>
			<stop  offset="0.3627" style="stop-color:#D67B68"/>
			<stop  offset="0.3725" style="stop-color:#D57B68"/>
			<stop  offset="0.3824" style="stop-color:#D57B69"/>
			<stop  offset="0.3922" style="stop-color:#D47B6A"/>
			<stop  offset="0.402" style="stop-color:#D37B6A"/>
			<stop  offset="0.4118" style="stop-color:#D27C6B"/>
			<stop  offset="0.4216" style="stop-color:#D17C6C"/>
			<stop  offset="0.4314" style="stop-color:#D07C6C"/>
			<stop  offset="0.4412" style="stop-color:#CF7C6D"/>
			<stop  offset="0.451" style="stop-color:#CE7C6D"/>
			<stop  offset="0.4608" style="stop-color:#CD7C6E"/>
			<stop  offset="0.4706" style="stop-color:#CC7C6E"/>
			<stop  offset="0.4804" style="stop-color:#CB7C6F"/>
			<stop  offset="0.4902" style="stop-color:#CA7C70"/>
			<stop  offset="0.5" style="stop-color:#C97C70"/>
			<stop  offset="0.5098" style="stop-color:#C87C71"/>
			<stop  offset="0.5196" style="stop-color:#C77C71"/>
			<stop  offset="0.5294" style="stop-color:#C67D72"/>
			<stop  offset="0.5392" style="stop-color:#C57D72"/>
			<stop  offset="0.549" style="stop-color:#C47D73"/>
			<stop  offset="0.5588" style="stop-color:#C37D73"/>
			<stop  offset="0.5686" style="stop-color:#C27D74"/>
			<stop  offset="0.5784" style="stop-color:#C17D74"/>
			<stop  offset="0.5882" style="stop-color:#BF7D74"/>
			<stop  offset="0.598" style="stop-color:#BE7D75"/>
			<stop  offset="0.6078" style="stop-color:#BD7D75"/>
			<stop  offset="0.6176" style="stop-color:#BC7D76"/>
			<stop  offset="0.6275" style="stop-color:#BB7D76"/>
			<stop  offset="0.6373" style="stop-color:#B97D77"/>
			<stop  offset="0.6471" style="stop-color:#B87D77"/>
			<stop  offset="0.6569" style="stop-color:#B77D77"/>
			<stop  offset="0.6667" style="stop-color:#B57D78"/>
			<stop  offset="0.6765" style="stop-color:#B47E78"/>
			<stop  offset="0.6863" style="stop-color:#B37E78"/>
			<stop  offset="0.6961" style="stop-color:#B17E79"/>
			<stop  offset="0.7059" style="stop-color:#B07E79"/>
			<stop  offset="0.7157" style="stop-color:#AE7E79"/>
			<stop  offset="0.7255" style="stop-color:#AD7E7A"/>
			<stop  offset="0.7353" style="stop-color:#AC7E7A"/>
			<stop  offset="0.7451" style="stop-color:#AA7E7A"/>
			<stop  offset="0.7549" style="stop-color:#A97E7B"/>
			<stop  offset="0.7647" style="stop-color:#A77E7B"/>
			<stop  offset="0.7745" style="stop-color:#A67E7B"/>
			<stop  offset="0.7843" style="stop-color:#A47E7C"/>
			<stop  offset="0.7941" style="stop-color:#A37E7C"/>
			<stop  offset="0.8039" style="stop-color:#A17E7C"/>
			<stop  offset="0.8137" style="stop-color:#A07E7C"/>
			<stop  offset="0.8235" style="stop-color:#9E7E7C"/>
			<stop  offset="0.8333" style="stop-color:#9C7E7D"/>
			<stop  offset="0.8431" style="stop-color:#9B7E7D"/>
			<stop  offset="0.8529" style="stop-color:#997E7D"/>
			<stop  offset="0.8627" style="stop-color:#977E7D"/>
			<stop  offset="0.8725" style="stop-color:#967E7D"/>
			<stop  offset="0.8824" style="stop-color:#947E7E"/>
			<stop  offset="0.8922" style="stop-color:#927E7E"/>
			<stop  offset="0.902" style="stop-color:#917E7E"/>
			<stop  offset="0.9118" style="stop-color:#8F7E7E"/>
			<stop  offset="0.9216" style="stop-color:#8D7E7E"/>
			<stop  offset="0.9314" style="stop-color:#8B7E7E"/>
			<stop  offset="0.9412" style="stop-color:#8A7E7E"/>
			<stop  offset="0.951" style="stop-color:#887E7E"/>
			<stop  offset="0.9608" style="stop-color:#867E7E"/>
			<stop  offset="0.9706" style="stop-color:#847E7E"/>
			<stop  offset="0.9804" style="stop-color:#827E7E"/>
			<stop  offset="0.9902" style="stop-color:#807E7E"/>
			<stop  offset="1" style="stop-color:#7F7F7F"/>
		</radialGradient>
		
			<path style="fill-rule:evenodd;clip-rule:evenodd;fill:url(#SVGID_00000014629380347515448410000017952013953384225193_);stroke:#040000;stroke-width:4.5833;stroke-miterlimit:8;" d="
			M2945.5,683.5h242v79h-242V683.5z"/>
		<rect x="2476.5" y="762.5" class="st8" width="898" height="272"/>
		
			<radialGradient id="SVGID_00000166666577403647292540000001802715848200790689_" cx="532716" cy="-294061.125" r="608378" fx="532715" fy="178100.8906" gradientTransform="matrix(-3.608920e-04 0 0 3.608920e-04 4178.6377 1559.4139)" gradientUnits="userSpaceOnUse">
			<stop  offset="0" style="stop-color:#E6774A"/>
			<stop  offset="0.77" style="stop-color:#BFBFBF"/>
			<stop  offset="1" style="stop-color:#BFBFBF"/>
		</radialGradient>
		
			<rect x="2728" y="764" style="fill:url(#SVGID_00000166666577403647292540000001802715848200790689_);" width="384" height="213"/>
		<rect x="2913.5" y="762.5" class="st10" width="25" height="79"/>
		<text transform="matrix(1 0 0 1 751.217 583)" class="st11 st2 st12">Slotted ferromagnetic</text>
		<text transform="matrix(1 0 0 1 1035.384 682)" class="st11 st2 st12">Lift</text>
		<text transform="matrix(1 0 0 1 1159.134 682)" class="st11 st2 st12">-</text>
		<text transform="matrix(1 0 0 1 1186.7737 682)" class="st11 st2 st12">off layer</text>
		<text transform="matrix(1 0 0 1 1886.957 589)" class="st11 st2 st12">Slot</text>
		<path d="M2058.6,737.1l110.2-1.2l-0.1-11.5l-110.3,1.2L2058.6,737.1z M2163.2,747.3l57.1-17.8l-57.5-16.5L2163.2,747.3z"/>
		<text transform="matrix(1 0 0 1 1297.65 465)" class="st11 st2 st12">Measuring point </text>
		<text transform="matrix(1 0 0 1 1861.4 465)" class="st11 st2 st12">(Sensor</text>
		<text transform="matrix(1 0 0 1 2115.4763 465)" class="st11 st2 st12">)</text>
		<text transform="matrix(1 0 0 1 2053.0291 696)" class="st11 st2 st12">Scan</text>
		<text transform="matrix(1 0 0 1 2954.5801 911)" class="st11 st2 st12">Defect</text>
		<path class="st4" d="M2905.5,683.5h40.2"/>
		
			<radialGradient id="SVGID_00000046321670553080258370000002075248307446313355_" cx="722899" cy="-111876.1094" r="730282" gradientTransform="matrix(3.608920e-04 0 0 -3.608920e-04 2570.7222 1266.3351)" gradientUnits="userSpaceOnUse">
			<stop  offset="0" style="stop-color:#E6774A"/>
			<stop  offset="0.6" style="stop-color:#7F7F7F"/>
			<stop  offset="1" style="stop-color:#7F7F7F"/>
		</radialGradient>
		
			<path style="fill-rule:evenodd;clip-rule:evenodd;fill:url(#SVGID_00000046321670553080258370000002075248307446313355_);stroke:#040000;stroke-width:4.5833;stroke-linejoin:round;stroke-miterlimit:10;" d="
			M1505.5,683.5h240v80h-240V683.5z"/>
		
			<radialGradient id="SVGID_00000013163384304219967230000009846792431632599460_" cx="722899" cy="-111876.1094" r="730282" gradientTransform="matrix(3.608920e-04 0 0 -3.608920e-04 2570.7222 1266.3351)" gradientUnits="userSpaceOnUse">
			<stop  offset="0" style="stop-color:#E6774A"/>
			<stop  offset="0.6" style="stop-color:#7F7F7F"/>
			<stop  offset="1" style="stop-color:#7F7F7F"/>
		</radialGradient>
		
			<path style="fill-rule:evenodd;clip-rule:evenodd;fill:url(#SVGID_00000013163384304219967230000009846792431632599460_);stroke:#040000;stroke-width:4.5833;stroke-miterlimit:8;" d="
			M1782.5,683.5h244v79h-244V683.5z"/>
		<rect x="1320.5" y="762.5" class="st8" width="898" height="272"/>
		
			<radialGradient id="SVGID_00000018225196047816871850000000459624140841680289_" cx="532716" cy="-294061.125" r="608379" fx="532716" fy="178101.875" gradientTransform="matrix(-3.608920e-04 0 0 3.608920e-04 3029.6377 1560.4139)" gradientUnits="userSpaceOnUse">
			<stop  offset="0" style="stop-color:#E6774A"/>
			<stop  offset="0.51" style="stop-color:#BFBFBF"/>
			<stop  offset="1" style="stop-color:#BFBFBF"/>
		</radialGradient>
		
			<rect x="1579" y="765" style="fill:url(#SVGID_00000018225196047816871850000000459624140841680289_);" width="384" height="213"/>
		<rect x="1731.5" y="647.5" class="st5" width="69" height="36"/>
		<path class="st16" d="M1502.5,603.5L1681,728.7"/>
		<path class="st16" d="M1676.5,493.5l96.5,167.9"/>
		<path class="st16" d="M1877.1,571.5l-105.6,173.4"/>
		<rect x="1492" y="637" class="st17" width="548" height="135"/>
		<text transform="matrix(1 0 0 1 1350.79 989)" class="st11 st2 st12">Workpiece</text>
		<path class="st18" d="M2054.5,2068l-11.5-34h23L2054.5,2068z"/>
		<path class="st19" d="M2055,2068.5l-11.5-34h23L2055,2068.5z"/>
		<path class="st19" d="M1445.5,1477.5h532v157h-532V1477.5z"/>
		<text transform="matrix(1 0 0 1 1489.34 1579)" class="st2 st20">Lift</text>
		<text transform="matrix(1 0 0 1 1585.0171 1579)" class="st2 st20">-</text>
		<text transform="matrix(1 0 0 1 1606.215 1579)" class="st2 st20">off increases</text>
		<path class="st19" d="M2123.5,1477.5h582v149h-582V1477.5z"/>
		<text transform="matrix(1 0 0 1 2157.01 1575)" class="st2 st20">Slot depth increases</text>
		<path class="st19" d="M2054.5,1281.5v49.2h-346v107.8"/>
		<path class="st18" d="M1708.5,1472l-11.5-34h23L1708.5,1472z"/>
		<path class="st19" d="M1709,1472.5l-11.5-34h23L1709,1472.5z"/>
		<path class="st19" d="M2054.5,1281.5v49.2h322v107.8"/>
		<path class="st18" d="M2376.5,1472l-11.5-34h23L2376.5,1472z"/>
		<path class="st19" d="M2377,1472.5l-11.5-34h23L2377,1472.5z"/>
		<path class="st19" d="M1792.6,1144.5h524.1c3.9,0,7.8,0.3,11.7,0.7c3.9,0.4,7.8,1.1,11.7,1.8c3.2,0.7,7.1,1.8,10.4,2.8
			c6.5,2.4,12.3,5.3,16.2,8.8c2,1.8,3.9,3.5,5.2,5.6c1.3,2.1,2.6,4.2,3.2,6.3c0.7,2.1,1.3,4.2,1.3,6.3v74.8c0,4.2-1.3,8.4-4.6,12.3
			c-1.3,1.8-3.2,3.9-5.2,5.6c-1.9,1.8-4.5,3.5-7.1,4.9c-2.6,1.4-5.9,2.8-9.1,3.9c-3.2,1.1-6.5,2.1-10.4,2.8
			c-3.9,0.7-7.8,1.4-11.7,1.8c-3.9,0.3-7.8,0.7-11.7,0.7h-524.1c-7.8,0-15.6-0.7-22.7-2.5c-3.2-0.7-7.1-1.8-10.4-2.8
			c-6.5-2.4-12.3-5.3-16.2-8.8c-1.9-1.8-3.9-3.5-5.2-5.6c-3.2-3.9-4.6-8.1-4.6-12.3v-75.1c0-2.1,0.7-4.2,1.3-6.3
			c0.6-2.1,1.9-4.2,3.2-6.3c1.3-2.1,3.2-3.9,5.2-5.6c1.9-1.8,4.6-3.5,7.2-4.9c2.6-1.4,5.8-2.8,9.1-3.9c3.2-1.1,6.5-2.1,10.4-2.8
			C1777,1145.2,1784.8,1144.5,1792.6,1144.5L1792.6,1144.5z"/>
		<text transform="matrix(1 0 0 1 1784.3101 1237)" class="st2 st20">Thicken lift</text>
		<text transform="matrix(1 0 0 1 2085.0911 1237)" class="st2 st20">-</text>
		<text transform="matrix(1 0 0 1 2106.2891 1237)" class="st2 st20">off layer</text>
		<path class="st19" d="M1708.5,1867.5v114.7h346v96.3"/>
		<path class="st19" d="M1443.5,1717.5h534v148h-534V1717.5z"/>
		<text transform="matrix(1 0 0 1 1512.45 1815)" class="st2 st20">LMF decreases</text>
		<path class="st19" d="M2376.5,1867.5v114.7h-322v91.3"/>
		<path class="st19" d="M2123.5,1717.5h522v148h-522V1717.5z"/>
		<text transform="matrix(1 0 0 1 2191.0701 1778)" class="st2 st21">Derivative of slot </text>
		<text transform="matrix(1 0 0 1 2219.7161 1831)" class="st2 st21">LMF increases </text>
		<path class="st19" d="M1825.4,2073.5h458.2c3.1,0,5.5,0,8.6,0.4c3.1,0.4,5.5,0.8,8,1.5c2.5,0.8,4.9,1.5,7.4,2.7
			c2.4,1.1,4.3,2.3,6.7,3.5c1.8,1.1,3.7,2.7,5.5,4.2s3.1,3.1,3.7,4.6c2.4,3.5,3.1,6.9,3.1,10.4v59.3c0,3.5-1.2,7.3-3.1,10.4
			c-1.2,1.5-2.4,3.1-3.7,4.6c-1.8,1.5-3.7,2.7-5.5,4.2c-1.8,1.2-4.3,2.3-6.7,3.5c-2.5,1.2-4.9,1.9-7.4,2.7c-2.4,0.8-5.5,1.1-8,1.5
			c-3.1,0.4-5.5,0.4-8.6,0.4h-458.2c-3.1,0-5.5,0-8.6-0.4c-3.1-0.4-5.5-0.8-8-1.5c-2.4-0.8-4.9-1.6-7.3-2.7
			c-4.9-1.9-8.6-4.6-12.2-7.7c-1.8-1.5-3.1-3.1-3.7-4.6c-2.5-3.5-3.1-6.9-3.1-10.4v-59.3c0-3.5,1.2-7.3,3.1-10.4
			c1.2-1.6,2.4-3.1,3.7-4.6c3.1-2.7,7.3-5.4,12.2-7.3c2.4-1.1,4.9-1.9,7.3-2.7c2.5-0.8,5.5-1.2,8-1.5
			C1819.9,2073.9,1822.3,2073.9,1825.4,2073.5z"/>
		<text transform="matrix(1 0 0 1 1852.58 2154)" class="st2 st20">Lift</text>
		<text transform="matrix(1 0 0 1 1948.2571 2154)" class="st2 st20">-</text>
		<text transform="matrix(1 0 0 1 1969.455 2154)" class="st2 st20">off tolerant</text>
		<text transform="matrix(-1.836970e-16 -1 1 -1.836970e-16 1341.96 1886.9994)" class="st2 st20">Permeability </text>
		<text transform="matrix(-1.836970e-16 -1 1 -1.836970e-16 1418.9598 1886.9994)" class="st2 st20">disturbance effect</text>
		<text transform="matrix(-1.836970e-16 -1 1 -1.836970e-16 2780.5398 1904.9994)" class="st2 st20">Magnetization </text>
		<text transform="matrix(-1.836970e-16 -1 1 -1.836970e-16 2857.5398 1904.9994)" class="st2 st20">enhancement effect</text>
		<path d="M1710.8,1634.5v63.2h-4.6v-63.2H1710.8z M1722.2,1693.1l-13.8,27.5l-13.8-27.5H1722.2z"/>
		<path d="M2378.8,1626.5v63.2h-4.6v-63.2H2378.8z M2390.2,1685.1l-13.8,27.5l-13.8-27.5H2390.2z"/>
		<rect x="1263.5" y="1388.5" class="st22" width="734" height="532"/>
		<rect x="2105.5" y="1388.5" class="st22" width="786" height="532"/>
	</g>
</g>
</svg>
